<svg version="1.1" xmlns="http://www.w3.org/2000/svg" xmlns:xlink="http://www.w3.org/1999/xlink" width="116.3333" height="193.05232" viewBox="0,0,116.3333,193.05232"><g transform="translate(-85.74917,-44.61434)"><g data-paper-data="{&quot;isPaintingLayer&quot;:true}" fill-rule="nonzero" stroke-linejoin="miter" stroke-miterlimit="10" stroke-dasharray="" stroke-dashoffset="0" style="mix-blend-mode: normal"><path d="M97.75,191.75001c0,0 31.30566,6.66666 46.75,6.66666c15.38879,0 45.75,-6.66666 45.75,-6.66666c0,0 0,3.86286 0,8.5334c-1.74395,-0.08847 -3.48979,-0.23006 -5.25,-0.45008c-18.68863,-2.33608 -37.66668,-0.33139 -56.5,-0.5c-4.355,-0.03899 -9.07416,-1.30953 -13.5,-1.5c-6.39182,-0.27507 -11.71901,-0.41562 -17.25,-0.48742c0,-3.24803 0,-5.5959 0,-5.5959z" fill="#b4abab" stroke="#000000" stroke-width="2" stroke-linecap="butt"/><path d="M99.75,219.91667c0,0 -0.94649,-1.09396 -1.53723,-2.57058c8.14592,0.15289 16.3317,0.49002 24.28723,0.98724c1.88481,0.1178 3.66094,1.06231 5.55902,1.06231c14.85697,0 39.08461,-0.19531 53.94098,-0.06231c1.7607,0.01576 3.66125,0.66034 5.478,0.90857c-0.61441,0.20022 -1.37843,0.34143 -2.31133,0.34143c-16.6586,0 -69.1566,0 -80,0c-3.81738,0 -5.41666,-0.66666 -5.41666,-0.66666z" fill="#b4abab" stroke="#000000" stroke-width="2" stroke-linecap="butt"/><path d="M97.75,117.75c0,0 0,-42.78106 0,-50.58334c0,-2.3486 1.66666,-3.91666 1.66666,-3.91666c0,0 0.47735,-0.66667 4.08334,-0.66667c16.65849,0 64.51746,0 76.33334,0c5.12038,0 7.41666,0.33334 7.41666,0.33334c0,0 3,2.27378 3,4.91667c0,8.14934 0,49.91666 0,49.91666c0,0 -31.93951,-5.66666 -47.75,-5.66666c-14.97777,0 -44.75,5.66666 -44.75,5.66666z" fill="#b4abab" stroke="#000000" stroke-width="2" stroke-linecap="butt"/><path d="M143.83099,198.17388c-15.27379,0.10988 -46.33099,-6.34055 -46.33099,-6.34055l13.33334,-22l0.33333,-23.66667l-13.66666,-28.33333c0,0 29.21109,-5.33334 44.33334,-5.33334c15.84407,0 48.66666,5.33334 48.66666,5.33334l-12.33334,28.66667l-0.66666,24.66666l12.66666,20c0,0 -30.72781,6.89493 -46.33568,7.00722z" fill="#252525" stroke="#000000" stroke-width="2" stroke-linecap="round"/><path d="M110.83334,170.83333v-25c0,0 4.77166,3.33334 8.66666,3.33334c4.19199,0 14.31837,-0.33334 25,-0.33334c9.16955,0 18.08162,-1.33333 24.66666,-1.33333c5.04538,0 8.33334,-1.66667 8.33334,-1.66667v25c0,0 -23.62518,-2.66666 -35,-2.66666c-10.81961,0 -31.66666,2.66666 -31.66666,2.66666z" fill="#b4abab" stroke="#000000" stroke-width="2" stroke-linecap="butt"/><path d="M96.3784,197.32953c-0.9386,-8.35862 -1.98999,-19.40732 -2.01769,-27.16237c-0.05933,-16.61329 3.13929,-54.33383 3.13929,-54.33383" fill="none" stroke="#000000" stroke-width="2" stroke-linecap="round"/><path d="M189.83334,104.83333c0,0 3.48018,46.25767 3.54073,65.33268c0.02851,8.98028 -1.14828,21.58936 -2.08432,30.16406" fill="none" stroke="#000000" stroke-width="2" stroke-linecap="round"/><path d="M93.5,103.5c0,0 -2.21335,-8.28625 -1.87153,-13.0066c0.23338,-3.22291 1.87153,-10.32674 1.87153,-10.32674l3.33334,-4l0.66666,40z" fill="#a29a9a" stroke="#000000" stroke-width="2" stroke-linecap="butt"/><path d="M190.25927,114.5l0.66666,-40l3.33334,4c0,0 1.63814,7.10383 1.87152,10.32674c0.34182,4.72034 -1.87152,13.0066 -1.87152,13.0066z" data-paper-data="{&quot;index&quot;:null}" fill="#a29a9a" stroke="#000000" stroke-width="2" stroke-linecap="butt"/><path d="M86.83334,185.16666c0,0 4.88888,-20.66666 6.33333,-20.66666c1.44445,0 0.66667,16.33333 0.66667,16.33333c0,0 2.33333,7.38377 2.33333,12c0,1.1887 0.07126,2.74811 0.18687,4.49593c-2.71815,-0.02961 -5.51006,-0.04419 -8.52281,-0.05135z" fill="#a29a9a" stroke="#000000" stroke-width="2" stroke-linecap="butt"/><path d="M98.48427,219.80688c-0.88818,-0.04555 -2.7244,-1.2087 -4.5338,-2.5239c1.66943,0.01804 3.34254,0.04405 5.01698,0.0778c0.49997,1.14821 0.82763,2.51332 -0.48317,2.4461z" fill="#a29a9a" stroke="#000000" stroke-width="2" stroke-linecap="butt"/><path d="M191.7395,193.5c0,-4.61623 2.33333,-12 2.33333,-12c0,0 -0.77777,-16.33334 0.66667,-16.33334c1.44445,0 6.33333,20.66666 6.33333,20.66666l-1.19884,14.55732c-2.86778,0.03411 -5.68115,0.05047 -8.49242,-0.05702c0.21246,-2.68016 0.35792,-5.13526 0.35792,-6.83362z" data-paper-data="{&quot;index&quot;:null}" fill="#a29a9a" stroke="#000000" stroke-width="2" stroke-linecap="butt"/><path d="M189.4219,220.47355c-0.27562,0.01413 -0.47881,-0.03506 -0.62317,-0.13225c0.40855,0.00781 0.81802,0.00333 1.22804,-0.00908c-0.2316,0.08329 -0.43547,0.13263 -0.60487,0.14132z" data-paper-data="{&quot;index&quot;:null}" fill="#a29a9a" stroke="#000000" stroke-width="2" stroke-linecap="butt"/><path d="" fill="#000000" stroke="#000000" stroke-width="2" stroke-linecap="butt"/><path d="M112.5,147.58333l-6,-12c0,0 23.64676,3.5 36,3.5c13.1026,0 40.5,-3.5 40.5,-3.5l-5,9c0,0 -4.54233,1.65637 -10.51147,2.40899c-6.8532,0.86409 -15.58716,0.85507 -21.48696,1.12529c-10.7891,0.49416 -33.50157,-0.53428 -33.50157,-0.53428z" fill="#000000" stroke="#000000" stroke-width="2" stroke-linecap="butt"/><text transform="translate(173.26452,141.81508) rotate(179.88528) scale(0.33962,0.18993) skewX(0.14082)" font-size="40" xml:space="preserve" fill="#b5b5b5" fill-rule="nonzero" stroke="none" stroke-width="1" stroke-linecap="butt" stroke-linejoin="miter" stroke-miterlimit="10" stroke-dasharray="" stroke-dashoffset="0" font-family="Marker" font-weight="normal" text-anchor="start" style="mix-blend-mode: normal"><tspan x="0" dy="0">g4m3rnn</tspan></text><path d="M97,190.08333c0,0 -2,-13.09609 -2,-22c0,-13.005 2,-48.5 2,-48.5l6,9c0,0 2.12919,3.86371 4.48983,10.50361c0.9569,2.69153 3.6232,5.00353 3.60608,8.9968c-0.03507,8.17982 1.83131,16.0764 -0.09592,20.49959c-3.5,8.03289 -6,13 -6,13z" fill="#252525" stroke="#000000" stroke-width="0.5" stroke-linecap="butt"/><path d="M183.374,182.08333c0,0 -2.5,-4.96711 -6,-13c-1.92722,-4.42319 -0.06085,-12.31977 -0.09591,-20.49959c-0.01712,-3.99327 2.64918,-6.30527 3.60608,-8.9968c2.36064,-6.6399 4.48983,-10.50361 4.48983,-10.50361l6,-9c0,0 2,35.495 2,48.5c0,8.90391 -2,22 -2,22z" data-paper-data="{&quot;index&quot;:null}" fill="#252525" stroke="#000000" stroke-width="0.5" stroke-linecap="butt"/><path d="M173.5,233.58333v-13h11v13c0,0 -4.16666,-3 -6,-3c-1.83334,0 -5,3 -5,3z" fill="#000000" stroke="#000000" stroke-width="0.5" stroke-linecap="butt"/><path d="M184.66667,233.75c0,0 -3.64289,3.55772 -5.50374,3.58592c-1.80406,0.02733 -5.49626,-3.41925 -5.49626,-3.41925v-6.5c0,0 3.52972,-2.55776 5.3346,-2.58596c1.74892,-0.02732 5.33208,2.41929 5.33208,2.41929z" fill="none" stroke="#000000" stroke-width="0.5" stroke-linecap="round"/><path d="M173.5,233.58333v-6.16666c0,0 3.52862,-2.33334 5.33334,-2.33334c1.86026,0 5.66666,2.33334 5.66666,2.33334v6.16666c0,0 -3.83333,-3 -5.66666,-3c-1.83334,0 -5.33334,3 -5.33334,3z" fill="#193f80" stroke="#000000" stroke-width="0.5" stroke-linecap="butt"/><path d="M178.83334,230.58333c2.39324,0 5.5,1.69636 5.5,3.58334c0,1.88698 -3.10676,3.25 -5.5,3.25c-2.39323,0 -5.16667,-1.52969 -5.16667,-3.41667c0,-1.88698 2.77343,-3.41667 5.16667,-3.41667z" fill="#ca0000" stroke="#000000" stroke-width="0.5" stroke-linecap="butt"/><path d="M178.41667,231.91667c0.78241,0 3.41667,1.76362 3.41667,2.5c0,0.73638 -1.96759,1.83333 -2.75,1.83333c-0.78241,0 -3.25,-1.09695 -3.25,-1.83333c0,-0.73638 1.80092,-2.5 2.58333,-2.5z" fill="#000000" stroke="#000000" stroke-width="0.5" stroke-linecap="butt"/><path d="M100.5,63.33333l24,-15c0,0 11.85524,-2.64148 19.99791,-2.71903c9.22251,-0.08783 16.50209,2.71903 16.50209,2.71903l27,14z" fill="#b4abab" stroke="#110808" stroke-width="2" stroke-linecap="butt"/><path d="M109,234.83333l-12,-15l75.5,1v14.5z" fill="#b4abab" stroke="#110808" stroke-width="2" stroke-linecap="butt"/><path d="M185,235.33333v-14l5.3064,-1.01074c1.63041,-0.06273 3.2682,-0.23493 4.89018,-0.24238l-6.19658,15.25312z" fill="#b4abab" stroke="#110808" stroke-width="2" stroke-linecap="butt"/><path d="M93.5,218.83333c0,0 -6.66694,-16.51302 -6.75033,-20.51562c-0.08328,-3.99739 10.25033,-2.48438 10.25033,-2.48438c0,0 31.99538,4 47,4c16.08664,0 46.5,-4 46.5,-4c0,0 9,2.66667 9,6.5c0,3.83333 -5,17 -5,17z" fill="#b4abab" stroke="#110808" stroke-width="2" stroke-linecap="butt"/><path d="M116.5,104.83333v-32.5h57.5v32.5z" fill="#b4abab" stroke="#110808" stroke-width="2" stroke-linecap="butt"/><path d="M117.5,81.83333l55.5,0.5" fill="none" stroke="#110808" stroke-width="2" stroke-linecap="round"/><path d="M117.5,90.83333l55.5,0.5" fill="none" stroke="#110808" stroke-width="2" stroke-linecap="round"/><path d="M116.5,99.33333l57.5,1" fill="none" stroke="#110808" stroke-width="2" stroke-linecap="round"/><path d="M188,191.33333l-77,-20.5l78,20" fill="none" stroke="#000000" stroke-width="2" stroke-linecap="round"/><path d="M93.5,165.33333l18,3.5" fill="none" stroke="#000000" stroke-width="2" stroke-linecap="round"/><path d="M177.5,169.33333l15,-4.5" fill="none" stroke="#000000" stroke-width="2" stroke-linecap="round"/></g></g></svg>