<svg version="1.1" xmlns="http://www.w3.org/2000/svg" xmlns:xlink="http://www.w3.org/1999/xlink" width="169.01862" height="276.98566" viewBox="0,0,169.01862,276.98566"><g transform="translate(-156.49069,-56.18099)"><g data-paper-data="{&quot;isPaintingLayer&quot;:true}" fill-rule="nonzero" stroke="#000000" stroke-width="2" stroke-linejoin="miter" stroke-miterlimit="10" stroke-dasharray="" stroke-dashoffset="0" style="mix-blend-mode: normal"><path d="M174.5,293.16666c0,0 12,-66.58375 12,-100c0,-33.58292 -12,-101 -12,-101c0,0 43.91729,-22 66,-22c22.24937,0 67,22 67,22c0,0 -11,63.28322 -11,96c0,34.21603 11,105 11,105c0,0 -48.135,16 -71,16c-21.36671,0 -62,-16 -62,-16z" fill="#901a1a" stroke-linecap="butt"/><path d="M158.5,157.16666l-1,-21l17,-42l11,93z" fill="#901a1a" stroke-linecap="butt"/><path d="M165.5,332.16666v-33c0,0 49.26922,9 74,9c27.05939,0 82,-9 82,-9v33z" fill="#901a1a" stroke-linecap="butt"/><path d="M186.5,302.16666v-25h3v25z" fill="#000000" stroke-linecap="butt"/><path d="M292.74445,303.25555v-25h3v25z" fill="#000000" stroke-linecap="butt"/><path d="M296.5,185.16666l11,-93l17,42l-1,21z" data-paper-data="{&quot;index&quot;:null}" fill="#901a1a" stroke-linecap="butt"/><path d="M164.5,270.83333c0,0 -0.40663,-21.29942 3.51629,-29.76063c4.49813,-9.70184 16.48371,-25.23937 16.48371,-25.23937l-2.5,25l-7,52.5z" fill="#901a1a" stroke-linecap="butt"/><path d="M176,90.04166c0,0 12.29182,-20.11867 15.73721,-25.75792c1.68472,-2.75748 6.26279,-5.15874 6.26279,-5.15874c0,0 3.21048,-1.11142 11.00055,-1.26342c10.15247,-0.1981 23.83708,-0.46511 33.0167,-0.64423c12.31879,-0.24036 32.00984,0.76596 42.96561,1.4083c4.87246,0.28567 7.01714,1.99936 7.01714,1.99936c0,0 2.55036,2.42972 3.73019,5.42026c2.17399,5.51048 9.26981,23.4964 9.26981,23.4964c0,0 -30.28333,-14.38942 -53.26421,-19.52634c-5.45473,-1.2193 -12.38537,-0.97366 -16.23579,-0.97366c-18.65753,0 -59.5,21 -59.5,21z" fill="#000000" stroke-linecap="butt"/><path d="M307.98801,292.33333l-7,-52.5l-2.5,-25c0,0 11.98558,15.53753 16.48371,25.23937c3.92293,8.46121 3.51629,29.76063 3.51629,29.76063z" data-paper-data="{&quot;index&quot;:null}" fill="#901a1a" stroke-linecap="butt"/><path d="M197,251.83333l13.5,-47.5c0,0 20.51912,4.81999 30.51666,4.98388c10.32523,0.16927 30.48334,-3.98388 30.48334,-3.98388l15,46.5c0,0 -29.46044,10 -44.5,10c-14.78958,0 -45,-10 -45,-10z" fill="#555555" stroke-linecap="butt"/><path d="M201.5,171.33333l-11.5,-45c0,0 34.30535,-8.52724 50.99683,-8.28298c17.44216,0.25525 51.50318,9.78298 51.50318,9.78298l-11.5,44c0,0 -27.39781,-4.6786 -41.00148,-4.76416c-12.85378,-0.08084 -38.49852,4.26416 -38.49852,4.26416z" fill="#555555" stroke-linecap="butt"/><path d="M298.5,219.33333l-1,-11.5l13.5,-5.5l0.5,29z" fill="#7b7b7b" stroke-linecap="butt"/><path d="M172.5,231.33333l-0.5,-32l13.5,5.5l-1,11.5z" data-paper-data="{&quot;index&quot;:null}" fill="#7b7b7b" stroke-linecap="butt"/><path d="M204.5,249.33333l10,-39l13,3.5l-9.5,39.5z" fill="#555555" stroke-linecap="butt"/><path d="M266.1832,253.88596l-10.74855,-39.17868l12.8824,-3.91073l11.23244,38.66306z" data-paper-data="{&quot;index&quot;:null}" fill="#555555" stroke-linecap="butt"/><path d="M240.75,218.33333c9.25077,0 16.75,7.27537 16.75,16.25c0,8.97463 -7.49923,16.25 -16.75,16.25c-9.25077,0 -16.75,-7.27537 -16.75,-16.25c0,-8.97463 7.49923,-16.25 16.75,-16.25z" fill="#555555" stroke-linecap="butt"/><path d="M284.5,249.83333l-74.5,-45" fill="none" stroke-linecap="round"/><path d="M270.5,204.83333l-73.5,46.5" fill="none" stroke-linecap="round"/></g></g></svg>