<svg version="1.1" xmlns="http://www.w3.org/2000/svg" xmlns:xlink="http://www.w3.org/1999/xlink" width="161.5" height="272.5" viewBox="0,0,161.5,272.5"><g transform="translate(-181.75,-35.08333)"><g data-paper-data="{&quot;isPaintingLayer&quot;:true}" fill-rule="nonzero" stroke-linecap="butt" stroke-linejoin="miter" stroke-miterlimit="10" stroke-dasharray="" stroke-dashoffset="0" style="mix-blend-mode: normal"><path d="M212.5,277.16666c0,0 -4,-4.73087 -4,-12c0,-21.02811 0,-124.66434 0,-161c0,-7.89724 5,-9.61539 5,-9.61539c0,0 1.64714,-3 8,-3c12.87359,0 60.12755,0 84,0c8.47258,0 10,3 10,3c0,0 4,2.11807 4,10.61539c0,37.19934 0,139.16165 0,160c0,7.26913 -3,10 -3,10c0,0 -4.23627,4 -11,4c-13.09832,0 -59.42671,0 -83,0c-8.46823,0 -10,-2 -10,-2z" fill="#a71611" stroke="#000000" stroke-width="2"/><path d="M215.5,267.16666l10,-24h77l11,24c0,0 -32.66667,8 -49,8c-16.33334,0 -49,-8 -49,-8z" fill="#474747" stroke="#000000" stroke-width="2"/><path d="M229.5,187.16666l-12,-47c0,0 30.09151,-11 45,-11c15.40836,0 46,11 46,11l-11,48z" fill="#474747" stroke="#000000" stroke-width="2"/><path d="M228.5,243.16666v-55h69v55z" fill="#a71611" stroke="#000000" stroke-width="2"/><path d="M216.5,266.16666v-125l11,48v53z" fill="#474747" stroke="#000000" stroke-width="2"/><path d="M296.5,239.16666c0,0 1.27892,-17.66642 0.93555,-26.079c-0.32191,-7.8868 1.06445,-22.921 1.06445,-22.921l11,-48l4,124c0,0 -6.83502,-17.0321 -9.97348,-22.0167c-2.03348,-3.22964 -7.02652,-4.9833 -7.02652,-4.9833z" data-paper-data="{&quot;index&quot;:null}" fill="#474747" stroke="#000000" stroke-width="2"/><path d="M216.25,84.58333l-34.5,-49l88.5,-0.5l-28,49.5z" fill="#ffe42b" stroke="none" stroke-width="0"/><path d="M289.25,85.08333l-34.5,-49l88.5,-0.5l-28,49.5z" fill="#ffe42b" stroke="none" stroke-width="0"/><path d="M208.25,305.58333l12,-23h19.5l7,24.5z" fill="#e00000" stroke="none" stroke-width="0"/><path d="M279.25,307.58333l7,-24.5h19.5l12,23z" data-paper-data="{&quot;index&quot;:null}" fill="#e00000" stroke="none" stroke-width="0"/></g></g></svg>