<svg version="1.1" xmlns="http://www.w3.org/2000/svg" xmlns:xlink="http://www.w3.org/1999/xlink" width="140.44914" height="228.38571" viewBox="0,0,140.44914,228.38571"><g transform="translate(-73.75,-24.62739)"><g data-paper-data="{&quot;isPaintingLayer&quot;:true}" fill-rule="nonzero" stroke-linejoin="miter" stroke-miterlimit="10" stroke-dasharray="" stroke-dashoffset="0" style="mix-blend-mode: normal"><path d="M99.75001,219.91667c0,0 -2,-2.31163 -2,-4.75c0,-5.06986 0,-23.41666 0,-23.41666c0,0 31.30566,6.66666 46.75,6.66666c15.38879,0 45.75,-6.66666 45.75,-6.66666c0,0 0,18.3468 0,23.41666c0,2.43837 -0.66666,3.75 -0.66666,3.75c0,0 -1.21173,1.66666 -4.41667,1.66666c-16.6586,0 -69.1566,0 -80,0c-3.81738,0 -5.41666,-0.66666 -5.41666,-0.66666z" fill="#b4abab" stroke="#000000" stroke-width="2" stroke-linecap="butt"/><path d="M143.831,198.17388c-15.27379,0.10988 -46.33099,-6.34055 -46.33099,-6.34055l13.33334,-22l0.33333,-23.66667l-13.66666,-28.33333c0,0 29.21109,-5.33334 44.33334,-5.33334c15.84407,0 48.66666,5.33334 48.66666,5.33334l-12.33334,28.66667l-0.66666,24.66666l12.66666,20c0,0 -30.72781,6.89493 -46.33568,7.00722z" fill="#252525" stroke="#000000" stroke-width="2" stroke-linecap="round"/><path d="M110.83335,170.83333v-25c0,0 4.77166,3.33334 8.66666,3.33334c4.19199,0 14.31837,-0.33334 25,-0.33334c9.16955,0 18.08162,-1.33333 24.66666,-1.33333c5.04538,0 8.33334,-1.66667 8.33334,-1.66667v25c0,0 -23.62518,-2.66666 -35,-2.66666c-10.81961,0 -31.66666,2.66666 -31.66666,2.66666z" fill="#b4abab" stroke="#000000" stroke-width="2" stroke-linecap="butt"/><path d="M97.83334,209.16666c0,0 -3.42235,-24.92445 -3.47262,-38.9995c-0.05933,-16.61329 3.13929,-54.33383 3.13929,-54.33383" fill="none" stroke="#000000" stroke-width="2" stroke-linecap="round"/><path d="M189.83335,104.83333c0,0 3.48018,46.25767 3.54073,65.33268c0.04719,14.86332 -3.2074,39.66732 -3.2074,39.66732" fill="none" stroke="#000000" stroke-width="2" stroke-linecap="round"/><path d="M93.50001,103.5c0,0 -2.21335,-8.28625 -1.87153,-13.0066c0.23338,-3.22291 1.87153,-10.32674 1.87153,-10.32674l3.33334,-4l0.66666,40z" fill="#a29a9a" stroke="#000000" stroke-width="2" stroke-linecap="butt"/><path d="M190.25928,114.5l0.66666,-40l3.33334,4c0,0 1.63814,7.10383 1.87152,10.32674c0.34182,4.72034 -1.87152,13.0066 -1.87152,13.0066z" data-paper-data="{&quot;index&quot;:null}" fill="#a29a9a" stroke="#000000" stroke-width="2" stroke-linecap="butt"/><path d="M89.16668,213.5l-2.33333,-28.33334c0,0 4.88888,-20.66666 6.33333,-20.66666c1.44445,0 0.66667,16.33333 0.66667,16.33333c0,0 2.33333,7.38377 2.33333,12c0,6.29757 2,23 2,23c0,0 2.56325,4.08871 0.3176,3.97355c-2.07402,-0.10636 -9.3176,-6.30688 -9.3176,-6.30688z" fill="#a29a9a" stroke="#000000" stroke-width="2" stroke-linecap="butt"/><path d="M189.42191,220.47355c-2.24565,0.11516 0.3176,-3.97355 0.3176,-3.97355c0,0 2,-16.70243 2,-23c0,-4.61623 2.33333,-12 2.33333,-12c0,0 -0.77777,-16.33334 0.66667,-16.33334c1.44445,0 6.33333,20.66666 6.33333,20.66666l-2.33333,28.33334c0,0 -7.24358,6.20052 -9.3176,6.30688z" data-paper-data="{&quot;index&quot;:null}" fill="#a29a9a" stroke="#000000" stroke-width="2" stroke-linecap="butt"/><path d="M112.50001,147.58333l-6,-12c0,0 23.64676,3.5 36,3.5c13.1026,0 40.5,-3.5 40.5,-3.5l-5,9c0,0 -4.54233,1.65637 -10.51147,2.40899c-6.8532,0.86409 -15.58716,0.85507 -21.48696,1.12529c-10.7891,0.49416 -33.50157,-0.53428 -33.50157,-0.53428z" fill="#000000" stroke="#000000" stroke-width="2" stroke-linecap="butt"/><text transform="translate(173.26453,141.81508) rotate(179.88528) scale(0.33962,0.18993) skewX(0.14082)" font-size="40" xml:space="preserve" fill="#b5b5b5" fill-rule="nonzero" stroke="none" stroke-width="1" stroke-linecap="butt" stroke-linejoin="miter" stroke-miterlimit="10" stroke-dasharray="" stroke-dashoffset="0" font-family="Marker" font-weight="normal" text-anchor="start" style="mix-blend-mode: normal"><tspan x="0" dy="0">g4m3rnn</tspan></text><path d="M97.00001,190.08333c0,0 -2,-13.09609 -2,-22c0,-13.005 2,-48.5 2,-48.5l6,9c0,0 2.12919,3.86371 4.48983,10.50361c0.9569,2.69153 3.6232,5.00353 3.60608,8.9968c-0.03507,8.17982 1.83131,16.0764 -0.09592,20.49959c-3.5,8.03289 -6,13 -6,13z" fill="#252525" stroke="#000000" stroke-width="0.5" stroke-linecap="butt"/><path d="M183.37401,182.08333c0,0 -2.5,-4.96711 -6,-13c-1.92722,-4.42319 -0.06085,-12.31977 -0.09591,-20.49959c-0.01712,-3.99327 2.64918,-6.30527 3.60608,-8.9968c2.36064,-6.6399 4.48983,-10.50361 4.48983,-10.50361l6,-9c0,0 2,35.495 2,48.5c0,8.90391 -2,22 -2,22z" data-paper-data="{&quot;index&quot;:null}" fill="#252525" stroke="#000000" stroke-width="0.5" stroke-linecap="butt"/><path d="M173.50001,233.58333v-13h11v13c0,0 -4.16666,-3 -6,-3c-1.83334,0 -5,3 -5,3z" fill="#000000" stroke="#000000" stroke-width="0.5" stroke-linecap="butt"/><path d="M184.66668,233.75c0,0 -3.64289,3.55772 -5.50374,3.58592c-1.80406,0.02733 -5.49626,-3.41925 -5.49626,-3.41925v-6.5c0,0 3.52972,-2.55776 5.3346,-2.58596c1.74892,-0.02732 5.33208,2.41929 5.33208,2.41929z" fill="none" stroke="#000000" stroke-width="0.5" stroke-linecap="round"/><path d="M173.50001,233.58333v-6.16666c0,0 3.52862,-2.33334 5.33334,-2.33334c1.86026,0 5.66666,2.33334 5.66666,2.33334v6.16666c0,0 -3.83333,-3 -5.66666,-3c-1.83334,0 -5.33334,3 -5.33334,3z" fill="#193f80" stroke="#000000" stroke-width="0.5" stroke-linecap="butt"/><path d="M178.83335,230.58333c2.39324,0 5.5,1.69636 5.5,3.58334c0,1.88698 -3.10676,3.25 -5.5,3.25c-2.39323,0 -5.16667,-1.52969 -5.16667,-3.41667c0,-1.88698 2.77343,-3.41667 5.16667,-3.41667z" fill="#ca0000" stroke="#000000" stroke-width="0.5" stroke-linecap="butt"/><path d="M178.41668,231.91667c0.78241,0 3.41667,1.76362 3.41667,2.5c0,0.73638 -1.96759,1.83333 -2.75,1.83333c-0.78241,0 -3.25,-1.09695 -3.25,-1.83333c0,-0.73638 1.80092,-2.5 2.58333,-2.5z" fill="#000000" stroke="#000000" stroke-width="0.5" stroke-linecap="butt"/><path d="M80.5,244.83333v-213.5h125.5v213.5z" fill="none" stroke="#000000" stroke-width="4" stroke-linecap="butt"/><path d="M80.5,243.33333l20.5,-22" fill="none" stroke="#000000" stroke-width="4" stroke-linecap="round"/><path d="M80.5,156.33333l14,-45" fill="none" stroke="#000000" stroke-width="4" stroke-linecap="round"/><path d="M207,160.83333l-15.5,-46" fill="none" stroke="#000000" stroke-width="4" stroke-linecap="round"/><path d="M207.16667,245.66666c0,0 -2.38809,2.63317 -7.19847,2.59645c-14.089,-0.10755 -84.18952,-0.64432 -111.00878,-0.84969c-6.50144,-0.04979 -7.79276,-1.0801 -7.79276,-1.0801c0,0 -2.66667,-2.05949 -2.66667,-7.44444c0,-36.83779 0,-182.50153 0,-202c0,-4.23466 3.33333,-6.22223 3.33333,-6.22223c0,0 1.0403,-1.31651 8.1244,-1.28927c26.56297,0.10217 91.23493,0.3509 106.33304,0.40897c6.15718,0.02368 8.20922,2.71363 8.20922,2.71363c0,0 4.01932,1.55527 4.04295,6.71803c0.09496,20.74782 0.7219,157.73412 0.90619,198.00195c0.03218,7.03102 -2.28247,8.44669 -2.28247,8.44669z" fill="none" stroke="#000000" stroke-width="9.5" stroke-linecap="round"/><path d="M105.26145,103.33334l-0.56959,-51.83334" fill="none" stroke="#000000" stroke-width="9" stroke-linecap="round"/><path d="M184.03335,53.13288l-0.73336,53.56757" fill="none" stroke="#000000" stroke-width="9" stroke-linecap="round"/><path d="M108.66667,63.08333l9,10.66667l-0.33333,12.66666l-8.33334,7" fill="none" stroke="#000000" stroke-width="4" stroke-linecap="round"/><path d="M179,69.41666l-7.33334,8" fill="none" stroke="#000000" stroke-width="4" stroke-linecap="round"/><path d="M178.33334,91.75l-6.66667,-3.33334" fill="none" stroke="#000000" stroke-width="4" stroke-linecap="round"/><path d="M169.66667,78.41666v10.66667" fill="none" stroke="#000000" stroke-width="4" stroke-linecap="round"/><path d="M117.66667,79.08333l50,4.33333" fill="none" stroke="#000000" stroke-width="4" stroke-linecap="round"/><path d="M115.33334,113.41666l14,-82.66666h32.66666l11.66666,83.33334c0,0 -24.87727,-3.53084 -32.53062,-2.40693c-8.19806,1.20391 -25.80271,1.74025 -25.80271,1.74025z" fill="#b4abab" stroke="#000000" stroke-width="1.5" stroke-linecap="butt"/><path d="M99.5,193.33333l14.5,-23.5c0,0 21.59789,-1.67305 32.016,-1.50768c10.57942,0.16792 30.984,2.50768 30.984,2.50768l12.5,22.5c0,0 -30.25841,5 -45.5,5c-14.74174,0 -44.5,-5 -44.5,-5z" fill="#b4abab" stroke="#000000" stroke-width="2" stroke-linecap="butt"/><path d="M82.75,242.57854l19.75,-21.25h70v21.5z" fill="#b4abab" stroke="#000000" stroke-width="2" stroke-linecap="butt"/><path d="M185,242.32854v-20.5l19,-8.5l-0.25,29z" fill="#b4abab" stroke="#000000" stroke-width="2" stroke-linecap="butt"/><path d="M192.5,164.07853c0,0 -0.6454,-33.61341 0.47203,-54.65007c0.17607,-3.31468 3.27797,-6.37298 3.27797,-9.0118c0,-3.32046 1.17138,-6.79398 1.0369,-10.73419c-0.20623,-6.04291 -5.37813,-12.36239 -5.88977,-18.77754c-1.45876,-18.29049 1.10287,-35.57639 1.10287,-35.57639h11l0.5,154.5z" fill="#b4abab" stroke="#000000" stroke-width="2" stroke-linecap="butt"/><path d="M200.625,214.16667v-24.75h2.75v24.75z" fill="#b4abab" stroke="#000000" stroke-width="2" stroke-linecap="butt"/><path d="M82,170.16667l1.75,-136.25l15,1c0,0 -1.66758,17.22784 -2.55384,33.7739c-0.40302,7.52423 -5.69616,13.66595 -5.69616,19.9761c0,6.75241 4.07089,16.50787 5.14508,26.48438c0.16059,1.49148 -0.72345,2.7435 -0.66904,4.24841c0.88785,24.55894 -0.97603,50.01721 -0.97603,50.01721c0,0 -9.10469,18.81905 -11.26848,18.95428c-1.7458,0.10911 -0.73152,-18.20428 -0.73152,-18.20428z" fill="#b4abab" stroke="#000000" stroke-width="2" stroke-linecap="butt"/><path d="M81.75,219.91667v-33.25h5.75c0,0 3.18292,23.12783 3.35044,28.73954c0.07025,2.35337 6.14956,5.26046 6.14956,5.26046c0,0 -10.52526,16.44138 -13.25281,16.30724c-2.2721,-0.11175 -1.99719,-17.05724 -1.99719,-17.05724z" fill="#b4abab" stroke="#000000" stroke-width="2" stroke-linecap="butt"/><path d="M87.5,116.41666l0.75,-84.5h111.75l1.5,84c0,0 -4.43078,0.44543 -10.0058,0.39532c-17.67418,-0.15886 -57.39889,-5.0229 -77.18156,-3.21129c-3.06433,0.28062 -6.6379,1.13171 -8.56264,1.56597c-1.53815,0.34704 -2.81941,0.69408 -4.29987,1.03067c-7.05143,1.60319 -13.95013,0.71933 -13.95013,0.71933z" fill="#b4abab" stroke="#000000" stroke-width="2" stroke-linecap="butt"/></g></g></svg>