<svg version="1.1" xmlns="http://www.w3.org/2000/svg" xmlns:xlink="http://www.w3.org/1999/xlink" width="571.5" height="548.5" viewBox="0,0,571.5,548.5"><g transform="translate(34.75,94.25)"><g data-paper-data="{&quot;isPaintingLayer&quot;:true}" fill-rule="nonzero" stroke-linecap="butt" stroke-linejoin="miter" stroke-miterlimit="10" stroke-dasharray="" stroke-dashoffset="0" style="mix-blend-mode: normal"><path d="M-34.5,395.16666v-451h571v451zM203.5,63.16666c0,0 -3.39536,0 -6.22915,1.97847c-1.86005,0 -3.72011,0 -5.58016,0c0,0 -10,0 -10,10c0,10 10,10 10,10c6.32955,0 13.3752,0.83052 19.61984,-0.12913c1.56436,-0.2404 2.96286,-1.14325 4.5045,-1.5015c1.95004,-0.45315 4.04274,0.39193 6.00601,0c0.49982,-0.09978 0.99573,-0.21695 1.4883,-0.34784c12.45273,0 25.03377,0 37.19066,0c0,0 2.19871,0 4.53417,-1.03099l0.2301,0.00645c0,0 10,0 10,-10c0,-10 -10,-10 -10,-10l-1.40118,0.12913c-1.5015,-0.5005 -3.003,-1.001 -4.5045,-1.5015c-7.03868,-0.19737 -14.08016,-0.12913 -21.12134,-0.12913c-4.01821,0 -8.97699,-0.49729 -12.80804,0.26751c-1.79476,0.35829 -3.34984,1.49745 -5.02112,2.25852c-5.68957,0 -11.34326,0 -16.90808,0zM241.5,131.16666c-6.66666,0 -13.33334,0 -20,0c-1.51491,0 -8.76462,-0.03072 -9.60182,0.12913c-2.59558,0.4956 -5.04031,1.58936 -7.56046,2.38404c0,0 -9.48684,3.16228 -6.32456,12.64911c3.16228,9.48683 12.64912,6.32456 12.64912,6.32456c4.89297,-1.781 8.65404,-1.48684 13.83772,-1.48684c7,0 14,0 21,0c3.82151,0 9.29387,-1.02952 12.83772,0.48684l4.16228,0.51316c0,0 10,0 10,-10c0,-8.95796 -8.0245,-9.89141 -9.69687,-9.98869c-6.91805,-1.64572 -14.17743,-1.01131 -21.30313,-1.01131zM258.33772,-13.32018l-1.43954,0.61596c-15.05584,-0.81065 -30.32285,-0.12913 -45.39818,-0.12913c0,0 -10,0 -10,10c0,10 10,10 10,10c16.19405,0 32.41166,0.24407 48.60182,-0.12913l4.56046,-1.38404c0,0 9.48683,-3.16228 6.32456,-12.64911c-3.16228,-9.48683 -12.64911,-6.32456 -12.64911,-6.32456zM259.5,205.16666h-1c-3.51438,0 -5.24407,-0.51313 -8.77817,-0.92507c-6.55113,-0.76362 -13.6299,-0.07493 -20.22183,-0.07493c-1.33809,0 -8.41494,-0.01913 -9.22183,0.07493c-1.93747,0.22583 -3.82931,1.00719 -5.77817,0.92507c0,0 -10,0 -10,10c0,10 10,10 10,10c2.7635,-0.04905 5.48329,-0.70117 8.22183,-1.07492c3.39483,-0.46332 7.3469,0.07492 10.77817,0.07492c4.40072,0 9.41766,-0.67004 13.77817,-0.07492c3.88809,0.53064 7.23933,1.07492 11.22183,1.07492h1c0,0 10,0 10,-10c0,-10 -10,-10 -10,-10zM259.5,301.16666c-5.66666,0 -14.33334,0 -20,0c-2.61321,0 -5.83169,0.51409 -8.39818,0.12912c-2.922,-0.4383 -5.68507,-1.7101 -8.61644,-2.08045c-0.48185,-0.06088 -6.04655,-0.04867 -6.98538,-0.04867c0,0 -10,0 -10,10c0,10 10,10 10,10c1.67162,0 3.35538,-0.25174 5.01462,-0.04866c2.52416,0.30894 4.86497,1.56807 7.38356,1.91954c9.19896,1.28369 19.31197,0.12912 28.60182,0.12912h3c0,0 10,0 10,-10c0,-10 -10,-10 -10,-10z" fill="#30302a" stroke="#30302a" stroke-width="0.5"/><path d="M220.37632,63.12804c1.67128,-0.76108 3.24588,-1.91009 5.04064,-2.26838c3.83105,-0.7648 8.83308,-0.25825 12.8513,-0.25825c7.04118,0 14.09814,-0.04742 21.13682,0.14996c1.5015,0.5005 3.00436,1.0049 4.50586,1.5054l1.40129,-0.12877c0,0 10.00203,0.01323 10.00203,10.01323c0,10 -10.00147,10.01298 -10.00147,10.01298l-0.23011,-0.00639c-2.33545,1.03099 -4.53502,1.034 -4.53502,1.034c-12.15689,0 -24.8082,0.02943 -37.26093,0.02943c-0.49257,0.13089 -0.99256,0.24574 -1.49239,0.34552c-1.96326,0.39193 -4.06769,-0.46345 -6.01773,-0.01029c-1.54164,0.35825 -2.94265,1.25782 -4.50701,1.49823c-6.24464,0.95965 -13.29682,0.11612 -19.62637,0.11612c0,0 -10.00247,-0.01339 -10.00247,-10.01339c0,-10 10.00104,-10.01273 10.00104,-10.01273c1.86005,0 3.72051,-0.00176 5.58057,-0.00176c2.83379,-1.97847 6.23111,-1.98458 6.23111,-1.98458c5.56481,0 11.23328,-0.02034 16.92286,-0.02034z" data-paper-data="{&quot;noHover&quot;:false,&quot;origItem&quot;:[&quot;Path&quot;,{&quot;applyMatrix&quot;:true,&quot;segments&quot;:[[[203.5,63.16666],[5.56481,0],[0,0]],[[197.27085,65.14513],[2.83379,-1.97847],[-1.86005,0]],[[191.69069,65.14513],[1.86005,0],[0,0]],[[181.69069,75.14513],[0,-10],[0,10]],[[191.69069,85.14513],[0,0],[6.32955,0]],[[211.31053,85.016],[-6.24464,0.95965],[1.56436,-0.2404]],[[215.81504,83.5145],[-1.54164,0.35825],[1.95004,-0.45315]],[[221.82104,83.5145],[-1.96326,0.39193],[0.49982,-0.09978]],[[223.30934,83.16666],[-0.49257,0.13089],[12.45273,0]],[[260.5,83.16666],[-12.15689,0],[0,0]],[[265.03417,82.13567],[-2.33545,1.03099],[0,0]],[265.26426,82.14213],[[275.26426,72.14213],[0,10],[0,-10]],[265.26426,62.14213],[[263.86308,62.27125],[0,0],[-1.5015,-0.5005]],[[259.35858,60.76975],[1.5015,0.5005],[-7.03868,-0.19737]],[[238.23724,60.64063],[7.04118,0],[-4.01821,0]],[[225.4292,60.90814],[3.83105,-0.7648],[-1.79476,0.35829]],[[220.40808,63.16666],[1.67128,-0.76108],[-5.68957,0]]],&quot;closed&quot;:true}]}" fill="#30302a" stroke="none" stroke-width="0.5"/><path d="M269.54999,311.16785c0,10 -10.00507,10.02078 -10.00507,10.02078l-3.00141,0.00267c-9.28985,0 -19.47988,1.16703 -28.67884,-0.11666c-2.51859,-0.35147 -4.87037,-1.62489 -7.39453,-1.93383c-1.65924,-0.20308 -3.34497,0.04434 -5.01659,0.04434c0,0 -10.00351,-0.02043 -10.00351,-10.02043c0,-10 10.00544,-10.02081 10.00544,-10.02081c0.93883,0 6.50796,-0.01934 6.98981,0.04154c2.93138,0.37036 5.7058,1.63112 8.6278,2.06942c2.56649,0.38497 5.82429,-0.13708 8.4375,-0.13708c5.66666,0 14.36886,0.02951 20.03552,0.02951c0,0 10.00389,0.02055 10.00389,10.02055z" data-paper-data="{&quot;noHover&quot;:false,&quot;origItem&quot;:[&quot;Path&quot;,{&quot;applyMatrix&quot;:true,&quot;segments&quot;:[[[259.5,301.16666],[0,0],[-5.66666,0]],[[239.5,301.16666],[5.66666,0],[-2.61321,0]],[[231.10182,301.29578],[2.56649,0.38497],[-2.922,-0.4383]],[[222.48538,299.21533],[2.93138,0.37036],[-0.48185,-0.06088]],[[215.5,299.16666],[0.93883,0],[0,0]],[[205.5,309.16666],[0,-10],[0,10]],[[215.5,319.16666],[0,0],[1.67162,0]],[[220.51463,319.11799],[-1.65924,-0.20308],[2.52416,0.30894]],[[227.89818,321.03753],[-2.51859,-0.35147],[9.19896,1.28369]],[[256.5,321.16666],[-9.28985,0],[0,0]],[259.5,321.16666],[[269.5,311.16666],[0,10],[0,-10]]],&quot;closed&quot;:true,&quot;fillColor&quot;:[1,1,1]}]}" fill="#30302a" stroke="none" stroke-width="0.5"/><path d="M269.54999,215.16764c0,10 -10.00479,10.02039 -10.00479,10.02039l-1.00039,0.0008c-3.98251,0 -7.34196,-0.5324 -11.23005,-1.06304c-4.3605,-0.59511 -9.4311,0.08786 -13.83182,0.08786c-3.43126,0 -7.40781,-0.55741 -10.80264,-0.09409c-2.73854,0.37375 -5.462,1.01943 -8.2255,1.06847c0,0 -10.00479,-0.02039 -10.00479,-10.02039c0,-10 10.00382,-10.02019 10.00382,-10.02019c1.94886,0.08211 3.84427,-0.70623 5.78174,-0.93207c0.80689,-0.09405 7.89702,-0.08923 9.2351,-0.08923c6.59194,0 13.73891,-0.67963 20.29005,0.08399c3.5341,0.41195 5.27074,0.93655 8.78512,0.93655l1.00032,0.00075c0,0 10.00382,0.02019 10.00382,10.02019z" data-paper-data="{&quot;noHover&quot;:false,&quot;origItem&quot;:[&quot;Path&quot;,{&quot;applyMatrix&quot;:true,&quot;segments&quot;:[[259.5,205.16666],[[258.5,205.16666],[0,0],[-3.51438,0]],[[249.72184,204.24158],[3.5341,0.41195],[-6.55113,-0.76362]],[[229.5,204.16666],[6.59194,0],[-1.33809,0]],[[220.27817,204.24158],[0.80689,-0.09405],[-1.93747,0.22583]],[[214.5,205.16666],[1.94886,0.08211],[0,0]],[[204.5,215.16666],[0,-10],[0,10]],[[214.5,225.16666],[0,0],[2.7635,-0.04905]],[[222.72184,224.09173],[-2.73854,0.37375],[3.39483,-0.46332]],[[233.5,224.16666],[-3.43126,0],[4.40072,0]],[[247.27817,224.09173],[-4.3605,-0.59511],[3.88809,0.53064]],[[258.5,225.16666],[-3.98251,0],[0,0]],[259.5,225.16666],[[269.5,215.16666],[0,10],[0,-10]]],&quot;closed&quot;:true,&quot;fillColor&quot;:[1,1,1]}]}" fill="#30302a" stroke="none" stroke-width="0.5"/><path d="M262.85023,132.1612c1.67237,0.09727 9.69977,1.04758 9.69977,10.00554c0,10 -10.00303,10.01706 -10.00303,10.01706l-4.16295,-0.51142c-3.54385,-1.51636 -9.02455,-0.47317 -12.84606,-0.47317c-7,0 -14.0757,0.00024 -21.0757,0.00024c-5.18368,0 -8.95286,-0.30702 -13.84583,1.47398c0,0 -9.49066,3.14803 -12.65294,-6.3388c-3.16228,-9.48683 6.32602,-12.66807 6.32602,-12.66807c2.52015,-0.79468 4.96782,-1.89642 7.5634,-2.39201c0.8372,-0.15985 8.0934,-0.13946 9.60831,-0.13946c6.66666,0 13.39785,-0.0113 20.06451,-0.0113c7.1257,0 14.40644,-0.60831 21.32449,1.03741z" data-paper-data="{&quot;noHover&quot;:false,&quot;origItem&quot;:[&quot;Path&quot;,{&quot;applyMatrix&quot;:true,&quot;segments&quot;:[[[241.5,131.16666],[7.1257,0],[-6.66666,0]],[[221.5,131.16666],[6.66666,0],[-1.51491,0]],[[211.89818,131.29578],[0.8372,-0.15985],[-2.59558,0.4956]],[[204.33772,133.67983],[2.52015,-0.79468],[0,0]],[[198.01317,146.32894],[-3.16228,-9.48683],[3.16228,9.48683]],[[210.66228,152.65349],[0,0],[4.89297,-1.781]],[[224.5,151.16666],[-5.18368,0],[7,0]],[[245.5,151.16666],[-7,0],[3.82151,0]],[[258.33772,151.65349],[-3.54385,-1.51636],[0,0]],[262.5,152.16666],[[272.5,142.16666],[0,10],[0,-8.95796]],[[262.80313,132.17797],[1.67237,0.09727],[-6.91805,-1.64572]]],&quot;closed&quot;:true,&quot;fillColor&quot;:[1,1,1]}]}" fill="#30302a" stroke="none" stroke-width="0.5"/><path d="M260.54718,83.18321c-12.17047,0 -24.80615,0 -37.30041,0c1.80352,-0.47471 3.56203,-1.13529 5.30379,-1.80229c0.55576,-0.21283 0.89027,-0.89046 1.4737,-1.00781c1.70481,-0.34289 3.47103,0.26751 5.20998,0.26751c6.9041,0 14.05002,0.50404 20.9207,-0.12913c1.5015,0.5005 3.003,1.001 4.5045,1.5015l4.43947,0.12449c-2.34217,1.04206 -4.55173,1.04572 -4.55173,1.04572z" data-paper-data="{&quot;noHover&quot;:false,&quot;origItem&quot;:[&quot;Path&quot;,{&quot;applyMatrix&quot;:true,&quot;segments&quot;:[[[260.5,63.16666],[0,0],[-18.66666,0]],[[203.5,63.16666],[18.66666,0],[0,0]],[[193.5,73.16666],[0,-10],[0,10]],[[203.5,83.16666],[0,0],[18.66666,0]],[[260.5,83.16666],[-18.66666,0],[0,0]],[[270.5,73.16666],[0,10],[0,-10]]],&quot;closed&quot;:true,&quot;fillColor&quot;:[1,1,1]}]}" fill="#30302a" stroke="none" stroke-width="0.5"/><path d="M203.45282,63.15011c5.58538,0 11.26874,0 16.99145,0c-0.58957,0.27066 -1.1933,0.49521 -1.82688,0.62264c-1.9627,0.39476 -4.03533,-0.35276 -6.00601,0c-1.55796,0.27888 -2.94827,1.21317 -4.5045,1.5015c-1.93608,0.35871 -3.93665,-0.12913 -5.90569,-0.12913c-1.66273,0 -3.32547,0 -4.9882,0c2.83637,-1.98939 6.23982,-1.99502 6.23982,-1.99502z" data-paper-data="{&quot;noHover&quot;:false,&quot;origItem&quot;:[&quot;Path&quot;,{&quot;applyMatrix&quot;:true,&quot;segments&quot;:[[[260.5,63.16666],[0,0],[-18.66666,0]],[[203.5,63.16666],[18.66666,0],[0,0]],[[193.5,73.16666],[0,-10],[0,10]],[[203.5,83.16666],[0,0],[18.66666,0]],[[260.5,83.16666],[-18.66666,0],[0,0]],[[270.5,73.16666],[0,10],[0,-10]]],&quot;closed&quot;:true,&quot;fillColor&quot;:[1,1,1]}]}" fill="#30302a" stroke="none" stroke-width="0.5"/><path d="M271.03655,-7.00097c3.16228,9.48683 -6.32662,12.66963 -6.32662,12.66963l-4.56231,1.38897c-16.19017,0.37319 -32.4997,0.12828 -48.69375,0.12828c0,0 -10.00385,-0.0186 -10.00385,-10.0186c0,-10 10.00327,-10.01844 10.00327,-10.01844c15.07533,0 30.43444,-0.68475 45.49028,0.12591l1.43958,-0.61587c0,0 9.49113,-3.14671 12.65341,6.34012z" data-paper-data="{&quot;noHover&quot;:false,&quot;origItem&quot;:[&quot;Path&quot;,{&quot;applyMatrix&quot;:true,&quot;segments&quot;:[[258.33772,-13.32018],[[256.89818,-12.70422],[0,0],[-15.05584,-0.81065]],[[211.5,-12.83334],[15.07533,0],[0,0]],[[201.5,-2.83334],[0,-10],[0,10]],[[211.5,7.16666],[0,0],[16.19405,0]],[[260.10182,7.03753],[-16.19017,0.37319],[0,0]],[264.66228,5.65349],[[270.98683,-6.99562],[3.16228,9.48683],[-3.16228,-9.48683]]],&quot;closed&quot;:true,&quot;fillColor&quot;:[1,1,1]}]}" fill="#30302a" stroke="none" stroke-width="0.5"/><path d="M-10.5,377.16666v-394h32v394z" fill="#110808" stroke="#000000" stroke-width="0.5"/><path d="M458.5,381.16666v-394h32v394z" fill="#110808" stroke="#000000" stroke-width="0.5"/><path d="M228,-94h20v80.97423c-6.65255,-0.13553 -13.33065,-0.06498 -20,0.02662z" fill="#797575" stroke="#000000" stroke-width="0.5"/><path d="M228,7.21735c6.66679,0.02734 13.33464,0.04649 20,-0.00253v53.41503c-3.25411,-0.0038 -6.50847,0.01077 -9.76276,0.01077c-3.16575,0 -6.9153,-0.30867 -10.23724,-0.06564z" fill="#797575" stroke="#000000" stroke-width="0.5"/><path d="M248,131.07302c-2.17013,0.03542 -4.3412,0.09364 -6.5,0.09364c-4.5,0 -9,0 -13.5,0v-48c6.678,0 13.37291,0 20,0z" fill="#797575" stroke="#30302a" stroke-width="0.5"/><path d="M248,204.07379c-6.0578,-0.48117 -12.48178,0.09286 -18.5,0.09286c-0.28224,0 -0.81981,-0.00085 -1.5,-0.00131v-52.99869c5.83334,0 11.66666,0 17.5,0c0.77534,0 1.61864,-0.04237 2.5,-0.09727z" fill="#797575" stroke="#000000" stroke-width="0.5"/><path d="M248,301.16666c-2.83334,0 -5.66666,0 -8.5,0c-2.61321,0 -5.83169,0.51409 -8.39818,0.12912c-1.04939,-0.15741 -2.07827,-0.42231 -3.10182,-0.71436v-76.62996c1.87349,0.07586 3.75416,0.2152 5.5,0.2152c4.40072,0 9.41766,-0.67004 13.77817,-0.07492c0.2426,0.03311 0.48313,0.06628 0.72183,0.09936z" fill="#797575" stroke="#000000" stroke-width="0.5"/><path d="M228,454v-132.94837c6.42156,0.88295 13.28479,0.58589 20,0.32836v132.62001z" fill="#797575" stroke="#000000" stroke-width="0.5"/><path d="M248.75,392.58333v-439.5h40.5v439.5z" fill="#30302a" stroke="none" stroke-width="0"/><path d="M184.75,394.58333v-439.5h40.5v439.5z" fill="#30302a" stroke="none" stroke-width="0"/><path d="M156.5,104.16666v-67h39v67z" fill="#30302a" stroke="none" stroke-width="0"/><path d="M-7.5,380.16666v-25h488v25z" fill="#110808" stroke="#110808" stroke-width="2"/><path d="M-5.5,407.16666v-10h483v10z" fill="#a64e4e" stroke="#110808" stroke-width="2"/></g></g></svg>