<svg version="1.1" xmlns="http://www.w3.org/2000/svg" xmlns:xlink="http://www.w3.org/1999/xlink" width="134.33334" height="176.08334" viewBox="0,0,134.33334,176.08334"><g transform="translate(-77.5,-61.58333)"><g data-paper-data="{&quot;isPaintingLayer&quot;:true}" fill-rule="nonzero" stroke-linejoin="miter" stroke-miterlimit="10" stroke-dasharray="" stroke-dashoffset="0" style="mix-blend-mode: normal"><path d="M99.75,219.91667c0,0 -2,-2.31163 -2,-4.75c0,-5.06986 0,-23.41666 0,-23.41666c0,0 31.30566,6.66666 46.75,6.66666c15.38879,0 45.75,-6.66666 45.75,-6.66666c0,0 0,18.3468 0,23.41666c0,2.43837 -0.66666,3.75 -0.66666,3.75c0,0 -1.21173,1.66666 -4.41667,1.66666c-16.6586,0 -69.1566,0 -80,0c-3.81738,0 -5.41666,-0.66666 -5.41666,-0.66666z" fill="#b4abab" stroke="#000000" stroke-width="2" stroke-linecap="butt"/><path d="M97.75,117.75c0,0 0,-42.78106 0,-50.58334c0,-2.3486 1.66666,-3.91666 1.66666,-3.91666c0,0 0.47735,-0.66667 4.08334,-0.66667c16.65849,0 64.51746,0 76.33334,0c5.12038,0 7.41666,0.33334 7.41666,0.33334c0,0 3,2.27378 3,4.91667c0,8.14934 0,49.91666 0,49.91666c0,0 -31.93951,-5.66666 -47.75,-5.66666c-14.97777,0 -44.75,5.66666 -44.75,5.66666z" fill="#b4abab" stroke="#000000" stroke-width="2" stroke-linecap="butt"/><path d="M143.83099,198.17388c-15.27379,0.10988 -46.33099,-6.34055 -46.33099,-6.34055l13.33334,-22l0.33333,-23.66667l-13.66666,-28.33333c0,0 29.21109,-5.33334 44.33334,-5.33334c15.84407,0 48.66666,5.33334 48.66666,5.33334l-12.33334,28.66667l-0.66666,24.66666l12.66666,20c0,0 -30.72781,6.89493 -46.33568,7.00722z" fill="#252525" stroke="#000000" stroke-width="2" stroke-linecap="round"/><path d="M110.83334,170.83333v-25c0,0 4.77166,3.33334 8.66666,3.33334c4.19199,0 14.31837,-0.33334 25,-0.33334c9.16955,0 18.08162,-1.33333 24.66666,-1.33333c5.04538,0 8.33334,-1.66667 8.33334,-1.66667v25c0,0 -23.62518,-2.66666 -35,-2.66666c-10.81961,0 -31.66666,2.66666 -31.66666,2.66666z" fill="#b4abab" stroke="#000000" stroke-width="2" stroke-linecap="butt"/><path d="M97.83333,209.16666c0,0 -3.42235,-24.92445 -3.47262,-38.9995c-0.05933,-16.61329 3.13929,-54.33383 3.13929,-54.33383" fill="none" stroke="#000000" stroke-width="2" stroke-linecap="round"/><path d="M189.83334,104.83333c0,0 3.48018,46.25767 3.54073,65.33268c0.04719,14.86332 -3.2074,39.66732 -3.2074,39.66732" fill="none" stroke="#000000" stroke-width="2" stroke-linecap="round"/><path d="M93.5,103.5c0,0 -2.21335,-8.28625 -1.87153,-13.0066c0.23338,-3.22291 1.87153,-10.32674 1.87153,-10.32674l3.33334,-4l0.66666,40z" fill="#a29a9a" stroke="#000000" stroke-width="2" stroke-linecap="butt"/><path d="M190.25927,114.5l0.66666,-40l3.33334,4c0,0 1.63814,7.10383 1.87152,10.32674c0.34182,4.72034 -1.87152,13.0066 -1.87152,13.0066z" data-paper-data="{&quot;index&quot;:null}" fill="#a29a9a" stroke="#000000" stroke-width="2" stroke-linecap="butt"/><path d="M89.16667,213.5l-2.33333,-28.33334c0,0 4.88888,-20.66666 6.33333,-20.66666c1.44445,0 0.66667,16.33333 0.66667,16.33333c0,0 2.33333,7.38377 2.33333,12c0,6.29757 2,23 2,23c0,0 2.56325,4.08871 0.3176,3.97355c-2.07402,-0.10636 -9.3176,-6.30688 -9.3176,-6.30688z" fill="#a29a9a" stroke="#000000" stroke-width="2" stroke-linecap="butt"/><path d="M189.4219,220.47355c-2.24565,0.11516 0.3176,-3.97355 0.3176,-3.97355c0,0 2,-16.70243 2,-23c0,-4.61623 2.33333,-12 2.33333,-12c0,0 -0.77777,-16.33334 0.66667,-16.33334c1.44445,0 6.33333,20.66666 6.33333,20.66666l-2.33333,28.33334c0,0 -7.24358,6.20052 -9.3176,6.30688z" data-paper-data="{&quot;index&quot;:null}" fill="#a29a9a" stroke="#000000" stroke-width="2" stroke-linecap="butt"/><path d="M80.5,215.83333v-13.33333c0,0 42.5567,2.66666 64,2.66666c21.66552,0 65.33334,-2.66666 65.33334,-2.66666v13.33333c0,0 -43.94703,-2.66667 -65.66667,-2.66667c-21.38632,0 -63.66666,2.66667 -63.66666,2.66667z" fill="#000000" stroke="#000000" stroke-width="2" stroke-linecap="butt"/><path d="M78.5,218.5v-18.66667h1v18.66667z" fill="none" stroke="#000000" stroke-width="2" stroke-linecap="butt"/><path d="M209.83334,218.41666v-18.66666h1v18.66666z" fill="none" stroke="#000000" stroke-width="2" stroke-linecap="butt"/><path d="M112.5,147.58333l-6,-12c0,0 23.64676,3.5 36,3.5c13.1026,0 40.5,-3.5 40.5,-3.5l-5,9c0,0 -4.54233,1.65637 -10.51147,2.40899c-6.8532,0.86409 -15.58716,0.85507 -21.48696,1.12529c-10.7891,0.49416 -33.50157,-0.53428 -33.50157,-0.53428z" fill="#000000" stroke="#000000" stroke-width="2" stroke-linecap="butt"/><text transform="translate(173.26452,141.81508) rotate(179.88528) scale(0.33962,0.18993) skewX(0.14082)" font-size="40" xml:space="preserve" fill="#b5b5b5" fill-rule="nonzero" stroke="none" stroke-width="1" stroke-linecap="butt" stroke-linejoin="miter" stroke-miterlimit="10" stroke-dasharray="" stroke-dashoffset="0" font-family="Marker" font-weight="normal" text-anchor="start" style="mix-blend-mode: normal"><tspan x="0" dy="0">g4m3rnn</tspan></text><path d="M97,190.08333c0,0 -2,-13.09609 -2,-22c0,-13.005 2,-48.5 2,-48.5l6,9c0,0 2.12919,3.86371 4.48983,10.50361c0.9569,2.69153 3.6232,5.00353 3.60608,8.9968c-0.03507,8.17982 1.83131,16.0764 -0.09592,20.49959c-3.5,8.03289 -6,13 -6,13z" fill="#252525" stroke="#000000" stroke-width="0.5" stroke-linecap="butt"/><path d="M183.374,182.08333c0,0 -2.5,-4.96711 -6,-13c-1.92722,-4.42319 -0.06085,-12.31977 -0.09591,-20.49959c-0.01712,-3.99327 2.64918,-6.30527 3.60608,-8.9968c2.36064,-6.6399 4.48983,-10.50361 4.48983,-10.50361l6,-9c0,0 2,35.495 2,48.5c0,8.90391 -2,22 -2,22z" data-paper-data="{&quot;index&quot;:null}" fill="#252525" stroke="#000000" stroke-width="0.5" stroke-linecap="butt"/><path d="M173.5,233.58333v-13h11v13c0,0 -4.16666,-3 -6,-3c-1.83334,0 -5,3 -5,3z" fill="#000000" stroke="#000000" stroke-width="0.5" stroke-linecap="butt"/><path d="M184.66667,233.75c0,0 -3.64289,3.55772 -5.50374,3.58592c-1.80406,0.02733 -5.49626,-3.41925 -5.49626,-3.41925v-6.5c0,0 3.52972,-2.55776 5.3346,-2.58596c1.74892,-0.02732 5.33208,2.41929 5.33208,2.41929z" fill="none" stroke="#000000" stroke-width="0.5" stroke-linecap="round"/><path d="M173.5,233.58333v-6.16666c0,0 3.52862,-2.33334 5.33334,-2.33334c1.86026,0 5.66666,2.33334 5.66666,2.33334v6.16666c0,0 -3.83333,-3 -5.66666,-3c-1.83334,0 -5.33334,3 -5.33334,3z" fill="#193f80" stroke="#000000" stroke-width="0.5" stroke-linecap="butt"/><path d="M178.83334,230.58333c2.39324,0 5.5,1.69636 5.5,3.58334c0,1.88698 -3.10676,3.25 -5.5,3.25c-2.39323,0 -5.16667,-1.52969 -5.16667,-3.41667c0,-1.88698 2.77343,-3.41667 5.16667,-3.41667z" fill="#ca0000" stroke="#000000" stroke-width="0.5" stroke-linecap="butt"/><path d="M178.41667,231.91667c0.78241,0 3.41667,1.76362 3.41667,2.5c0,0.73638 -1.96759,1.83333 -2.75,1.83333c-0.78241,0 -3.25,-1.09695 -3.25,-1.83333c0,-0.73638 1.80092,-2.5 2.58333,-2.5z" fill="#000000" stroke="#000000" stroke-width="0.5" stroke-linecap="butt"/></g></g></svg>