<svg version="1.1" xmlns="http://www.w3.org/2000/svg" xmlns:xlink="http://www.w3.org/1999/xlink" width="571.5" height="548.5" viewBox="0,0,571.5,548.5"><g transform="translate(34.75,94.25)"><g data-paper-data="{&quot;isPaintingLayer&quot;:true}" fill-rule="nonzero" stroke-linecap="butt" stroke-linejoin="miter" stroke-miterlimit="10" stroke-dasharray="" stroke-dashoffset="0" style="mix-blend-mode: normal"><path d="M-34.5,395.16666v-451h571v451zM243.5,181.16666c-14.66667,0 -29.33333,0 -44,0c0,0 -10,0 -10,10c0,10 10,10 10,10c14.66667,0 29.33333,0 44,0c6.96958,0 13.96218,-0.5162 20.92624,-0.41303c-0.04108,0.39344 -0.0803,0.78657 -0.11764,1.17934c-0.0409,0.43026 -0.03532,19.05858 -0.03532,23.36231v3.003c0,5.52285 4.47715,10 10,10c2.43408,0 4.66504,-0.86965 6.39913,-2.3152c1.64894,2.30567 3.51101,4.15136 5.9615,3.75002c0.78506,-0.12858 1.54481,-0.30241 2.28052,-0.51784c1.05487,0.37838 2.1918,0.58452 3.37687,0.58452c5.52285,0 10,-4.47715 10,-10v-0.82363c3.00265,-0.77033 5.46042,-2.89995 6.6786,-5.69418c4.4275,-0.07036 8.15609,-3.01812 9.39767,-7.0552l1.42858,-4.28574l-0.28338,-0.09446l0.4337,-0.39848c2.40481,-10.77721 5.50964,-21.39761 7.67337,-32.2258c1.3236,-6.62386 3.4678,-13.28285 3.09174,-20.02717c-0.00102,-0.01825 -0.00205,-0.0365 -0.0031,-0.05475l0.01085,0.00155l1.47717,-10.34021c0.08216,-0.51607 0.12483,-1.04531 0.12483,-1.58451c0,-5.52285 -4.47715,-10 -10,-10c-1.82764,0 -3.54076,0.49029 -5.01502,1.34653v-0.35553c0,-5.52285 -4.47715,-10 -10,-10c-3.34817,0 -6.31203,1.64548 -8.12699,4.17187c-0.02661,-0.00582 -0.05326,-0.01154 -0.07994,-0.01716c-0.25195,-0.22 -0.521,-0.43789 -0.80809,-0.6532c-8,-6 -14,2 -14,2c-3.83647,5.16686 -7.09784,10.77561 -9.95328,16.54288c-1.72674,3.48758 -3.97952,6.77424 -5.10537,10.49947c-1.98494,6.5678 -2.17282,13.52612 -2.09128,20.42592c-8.00938,-0.01647 -21.04661,-0.0113 -23.64136,-0.0113zM271.5,269.16666c-4.27308,0 -8.05851,0.55118 -12.22183,1.07492c-1.44869,0.18224 -2.93698,-0.16861 -4.37999,0.0542c-3.84382,0.5935 -7.45152,2.53855 -11.38355,2.91954c-5.20058,0.50391 -10.7893,-0.04867 -16.01462,-0.04867c-4.66667,0 -9.33479,-0.11661 -14,0c-2.19792,0.05494 -4.69614,0.27172 -6.52786,-0.94427c0,0 -8.94427,-4.47214 -13.41641,4.47214c-4.47214,8.94427 4.47214,13.41641 4.47214,13.41641c2.0582,0.92941 3.95909,2.35066 6.17461,2.78822c1.64573,0.32503 12.42258,0.26751 15.29753,0.26751c8.48356,0 17.53686,0.81298 25.98538,-0.04867c4.30066,-0.43861 8.46411,-2.56304 12.61645,-3.08046c4.46277,-0.5561 8.8577,-0.87087 13.39818,-0.87087h4c0,0 10,0 10,-10c0,-10 -10,-10 -10,-10zM275.5,62.16666h-2c-12.83861,0 -25.9064,-0.81033 -38.70889,0.02516c-2.35202,0.15349 -4.65277,0.7854 -7,1c-2.18857,0.20009 -4.43862,-0.21296 -6.58864,0.24235c-1.94351,0.41158 -3.73994,2.04086 -5.70247,1.73249c0,0 -10,0 -10,10c0,10 10,10 10,10c2.09918,-0.08917 4.24562,0.18432 6.29753,-0.26751c1.45583,-0.32057 2.54952,-1.65601 4,-2c1.10922,-0.26306 2.27438,0.32509 3.41136,0.24235c2.35081,-0.17107 4.64844,-0.83959 7,-1c12.31319,-0.83992 24.93468,0.02516 37.29111,0.02516h2c0,0 10,0 10,-10c0,-10 -10,-10 -10,-10zM252.5,335.16666c-6,0 -13,0 -19,0c-4.77846,0 -9.42845,0.5943 -13.453,-2.3205c0,0 -8.3205,-5.547 -13.8675,2.7735c-5.547,8.3205 2.7735,13.8675 2.7735,13.8675c12.47434,7.99685 28.30588,5.6795 42.547,5.6795h1c0,0 10,0 10,-10c0,-10 -10,-10 -10,-10zM258.5,10.16666h-3c-5.25487,0 -10.06179,-0.62664 -15.29111,-0.97484c-6.00658,-0.39996 -10.50322,-0.26836 -16.28353,-1.72658c0,0 -9.70143,-2.42536 -12.12678,7.27607c-2.42536,9.70143 7.27607,12.12678 7.27607,12.12678c4.05158,1.00532 7.26601,1.92957 11.60055,2.2645c2.69727,0.20842 5.41661,-0.17125 8.11592,0.00892c5.66072,0.37783 10.9987,1.02516 16.70889,1.02516h3c0,0 10,0 10,-10c0,-10 -10,-10 -10,-10zM255.5,122.16666h-4c-10.76283,0 -21.13062,-3 -32,-3c0,0 -10,0 -10,10c0,10 10,10 10,10c10.82662,0 21.14021,3 32,3h4c0,0 10,0 10,-10c0,-10 -10,-10 -10,-10z" fill="#30302a" stroke="#000000" stroke-width="0.5"/><path d="M267.09583,181.19861c-0.08154,-6.8998 0.13503,-13.8317 2.11997,-20.3995c1.12585,-3.72523 3.41396,-7.10542 5.1407,-10.593c2.85545,-5.76727 6.1194,-11.3749 9.95588,-16.54176c0,0 6.008,-7.99534 14.008,-1.99534c0.28708,0.21531 0.55679,0.43367 0.80874,0.65368c0.02668,0.00562 0.05337,0.01138 0.07998,0.0172c1.81497,-2.52639 4.78101,-4.17015 8.12919,-4.17015c5.52285,0 10.00685,4.48408 10.00685,10.00693l0.00012,0.35568c1.47426,-0.85623 3.18822,-1.34546 5.01585,-1.34546c5.52285,0 10.00468,4.48456 10.00468,10.0074c0,0.5392 -0.04229,1.06919 -0.12445,1.58527l-1.4749,10.34558l-0.01085,-0.00155c0.00105,0.01825 0.0021,0.03653 0.00312,0.05478c0.37606,6.74433 -1.76537,13.41649 -3.08898,20.04034c-2.16373,10.82819 -5.2731,21.47324 -7.67791,32.25045l-0.43387,0.39886l0.28339,0.09443l-1.43015,4.28877c-1.24158,4.03708 -4.97506,6.99202 -9.40256,7.06238c-1.21819,2.79422 -3.68081,4.929 -6.68346,5.69933l-0.00033,0.82393c0,5.52285 -4.48616,10.00648 -10.00901,10.00648c-1.18507,0 -2.32389,-0.20513 -3.37876,-0.58351c-0.73571,0.21543 -1.49713,0.39007 -2.28218,0.51865c-2.45049,0.40134 -4.31574,-1.44301 -5.96469,-3.74868c-1.73408,1.44554 -3.97087,2.31701 -6.40495,2.31701c-5.52285,0 -10.00816,-4.47585 -10.00816,-9.99869l-0.00784,-3.10269c0,-4.30373 -0.01083,-22.93134 0.03007,-23.3616c0.03734,-0.39278 0.09614,-0.68784 0.13722,-1.08128c-6.96406,-0.10316 -14.00254,0.3992 -20.97211,0.3992c-14.66667,0 -29.34588,-0.02164 -44.01255,-0.02164c0,0 -10.0016,-0.00847 -10.0016,-10.00847c0,-10 9.9998,-10.0073 9.9998,-10.0073c14.66667,0 29.33393,-0.00573 44.0006,-0.00573c2.59475,0 15.6358,0.02352 23.64518,0.04z" data-paper-data="{&quot;noHover&quot;:false,&quot;origItem&quot;:[&quot;Path&quot;,{&quot;applyMatrix&quot;:true,&quot;segments&quot;:[[[243.5,181.16666],[2.59475,0],[-14.66667,0]],[[199.5,181.16666],[14.66667,0],[0,0]],[[189.5,191.16666],[0,-10],[0,10]],[[199.5,201.16666],[0,0],[14.66667,0]],[[243.5,201.16666],[-14.66667,0],[6.96958,0]],[[264.42624,200.75363],[-6.96406,-0.10316],[-0.04108,0.39344]],[[264.3086,201.93297],[0.03734,-0.39278],[-0.0409,0.43026]],[[264.27327,225.29528],[0,-4.30373],[0,0]],[[264.27327,228.29828],[0,0],[0,5.52285]],[[274.27327,238.29828],[-5.52285,0],[2.43408,0]],[[280.6724,235.98309],[-1.73408,1.44554],[1.64894,2.30567]],[[286.6339,239.73311],[-2.45049,0.40134],[0.78506,-0.12858]],[[288.91442,239.21526],[-0.73571,0.21543],[1.05487,0.37838]],[[292.29129,239.79978],[-1.18507,0],[5.52285,0]],[[302.29129,229.79978],[0,5.52285],[0,0]],[[302.29129,228.97616],[0,0],[3.00265,-0.77033]],[[308.96989,223.28198],[-1.21819,2.79422],[4.4275,-0.07036]],[[318.36756,216.22679],[-1.24158,4.03708],[0,0]],[319.79614,211.94104],[319.51276,211.84658],[[319.94646,211.4481],[0,0],[2.40481,-10.77721]],[[327.61983,179.2223],[-2.16373,10.82819],[1.3236,-6.62386]],[[330.71157,159.19513],[0.37606,6.74433],[-0.00102,-0.01825]],[[330.70846,159.14038],[0.00105,0.01825],[0,0]],[330.71931,159.14193],[[332.19649,148.80171],[0,0],[0.08216,-0.51607]],[[332.32132,147.2172],[0,0.5392],[0,-5.52285]],[[322.32132,137.2172],[5.52285,0],[-1.82764,0]],[[317.30631,138.56373],[1.47426,-0.85623],[0,0]],[[317.30631,138.20819],[0,0],[0,-5.52285]],[[307.30631,128.20819],[5.52285,0],[-3.34817,0]],[[299.17931,132.38006],[1.81497,-2.52639],[-0.02661,-0.00582]],[[299.09938,132.3629],[0.02668,0.00562],[-0.25195,-0.22]],[[298.29129,131.70969],[0.28708,0.21531],[-8,-6]],[[284.29129,133.70969],[0,0],[-3.83647,5.16686]],[[274.33801,150.25257],[2.85545,-5.76727],[-1.72674,3.48758]],[[269.23264,160.75204],[1.12585,-3.72523],[-1.98494,6.5678]],[[267.14136,181.17796],[-0.08154,-6.8998],[-8.00938,-0.01647]]],&quot;closed&quot;:true}]}" fill="#30302a" stroke="none" stroke-width="0.5"/><path d="M262.54989,345.16993c0,10 -10.00746,10.02317 -10.00746,10.02317l-1.00066,0.00103c-14.24112,0 -30.16289,2.30223 -42.63723,-5.69461c0,0 -8.32019,-5.57287 -2.77319,-13.89337c5.547,-8.3205 13.87623,-2.79075 13.87623,-2.79075c4.02454,2.91481 8.71466,2.30127 13.49312,2.30127c6,0 13.04534,0.03051 19.04534,0.03051c0,0 10.00385,0.02276 10.00385,10.02276z" data-paper-data="{&quot;noHover&quot;:false,&quot;origItem&quot;:[&quot;Path&quot;,{&quot;applyMatrix&quot;:true,&quot;segments&quot;:[[[252.5,335.16666],[0,0],[-6,0]],[[233.5,335.16666],[6,0],[-4.77846,0]],[[220.047,332.84615],[4.02454,2.91481],[0,0]],[[206.1795,335.61965],[5.547,-8.3205],[-5.547,8.3205]],[[208.953,349.48716],[0,0],[12.47434,7.99685]],[[251.5,355.16666],[-14.24112,0],[0,0]],[252.5,355.16666],[[262.5,345.16666],[0,10],[0,-10]]],&quot;closed&quot;:true,&quot;fillColor&quot;:[1,1,1]}]}" fill="#30302a" stroke="none" stroke-width="0.5"/><path d="M285.54995,279.16433c0,10 -10.00105,10.01279 -10.00105,10.01279l-4.00028,0.00122c-4.54048,0 -8.93848,0.32373 -13.40125,0.87983c-4.15234,0.51742 -8.33693,2.66486 -12.63759,3.10347c-8.44852,0.86164 -17.56891,0.03105 -26.05247,0.03105c-2.87495,0 -13.65654,0.0473 -15.30227,-0.27773c-2.21552,-0.43756 -4.11785,-1.86412 -6.17606,-2.79353c0,0 -8.94512,-4.48772 -4.47299,-13.43199c4.47214,-8.94427 13.41807,-4.48077 13.41807,-4.48077c1.83173,1.21599 4.33043,0.99762 6.52835,0.94269c4.66521,-0.11661 9.34029,-0.01382 14.00696,-0.01382c5.22533,0 10.87937,0.53823 16.07995,0.03432c3.93203,-0.381 7.55619,-2.31096 11.40001,-2.90447c1.44301,-0.22281 2.93406,0.13254 4.38275,-0.04971c4.16332,-0.52374 7.95168,-1.0685 12.22476,-1.0685l4.0006,0.00171c0,0 10.0025,0.01345 10.0025,10.01345z" data-paper-data="{&quot;noHover&quot;:false,&quot;origItem&quot;:[&quot;Path&quot;,{&quot;applyMatrix&quot;:true,&quot;segments&quot;:[[275.5,269.16666],[[271.5,269.16666],[0,0],[-4.27308,0]],[[259.27817,270.24158],[4.16332,-0.52374],[-1.44869,0.18224]],[[254.89818,270.29578],[1.44301,-0.22281],[-3.84382,0.5935]],[[243.51462,273.21532],[3.93203,-0.381],[-5.20058,0.50391]],[[227.5,273.16666],[5.22533,0],[-4.66667,0]],[[213.5,273.16666],[4.66521,-0.11661],[-2.19792,0.05494]],[[206.97214,272.22238],[1.83173,1.21599],[0,0]],[[193.55573,276.69452],[4.47214,-8.94427],[-4.47214,8.94427]],[[198.02786,290.11093],[0,0],[2.0582,0.92941]],[[204.20247,292.89915],[-2.21552,-0.43756],[1.64573,0.32503]],[[219.5,293.16666],[-2.87495,0],[8.48356,0]],[[245.48538,293.11799],[-8.44852,0.86164],[4.30066,-0.43861]],[[258.10182,290.03753],[-4.15234,0.51742],[4.46277,-0.5561]],[[271.5,289.16666],[-4.54048,0],[0,0]],[275.5,289.16666],[[285.5,279.16666],[0,10],[0,-10]]],&quot;closed&quot;:true,&quot;fillColor&quot;:[1,1,1]}]}" fill="#30302a" stroke="none" stroke-width="0.5"/><path d="M243.4735,201.20906c-14.66667,0 -29.35618,-0.03434 -44.02285,-0.03434c0,0 -10.00062,-0.00975 -10.00062,-10.00975c0,-10 10.00141,-10.0102 10.00141,-10.0102c14.66667,0 29.36267,-0.03426 44.02933,-0.03426c2.59143,0 15.62933,0.00656 23.66027,0.03021c0.01162,0.99235 0.02886,1.9835 0.04717,2.97212c-1.24458,5.5358 -2.18786,11.12398 -2.76406,16.65078c-6.97257,-0.09339 -13.99355,0.43544 -20.95065,0.43544z" data-paper-data="{&quot;noHover&quot;:false,&quot;origItem&quot;:[&quot;Path&quot;,{&quot;applyMatrix&quot;:true,&quot;segments&quot;:[[297.5,185.16666],[[296.74035,185.24388],[0,0],[-7.8072,-0.96903]],[[273.48538,181.21532],[7.83322,0.72946],[-0.63883,-0.05949]],[[243.5,181.16666],[3.75261,0],[-14.66667,0]],[[199.5,181.16666],[14.66667,0],[0,0]],[[189.5,191.16666],[0,-10],[0,10]],[[199.5,201.16666],[0,0],[14.66667,0]],[[243.5,201.16666],[-14.66667,0],[9.33822,0]],[[271.51462,201.11799],[-9.29685,-0.87802],[7.66229,0.72364]],[[294.25965,205.08944],[-7.63619,-0.96066],[0,0]],[297.5,205.16666],[[307.5,195.16666],[0,10],[0,-10]]],&quot;closed&quot;:true,&quot;fillColor&quot;:[1,1,1]}]}" fill="#30302a" stroke="none" stroke-width="0.5"/><path d="M265.54993,132.16933c0,10 -10.00779,10.02424 -10.00779,10.02424l-4.0035,0.00482c-10.85979,0 -21.25723,-3.01039 -32.08385,-3.01039c0,0 -10.00472,-0.02403 -10.00472,-10.02403c0,-10 10.00779,-10.02424 10.00779,-10.02424c10.86938,0 21.32205,3.00097 32.08487,3.00097l4.00247,0.0046c0,0 10.00472,0.02403 10.00472,10.02403z" data-paper-data="{&quot;noHover&quot;:false,&quot;origItem&quot;:[&quot;Path&quot;,{&quot;applyMatrix&quot;:true,&quot;segments&quot;:[[255.5,122.16666],[[251.5,122.16666],[0,0],[-10.76283,0]],[[219.5,119.16666],[10.86938,0],[0,0]],[[209.5,129.16666],[0,-10],[0,10]],[[219.5,139.16666],[0,0],[10.82662,0]],[[251.5,142.16666],[-10.85979,0],[0,0]],[255.5,142.16666],[[265.5,132.16666],[0,10],[0,-10]]],&quot;closed&quot;:true,&quot;fillColor&quot;:[1,1,1]}]}" fill="#30302a" stroke="none" stroke-width="0.5"/><path d="M285.54997,72.165c0,10 -10.00194,10.01554 -10.00194,10.01554l-2.00027,0.00091c-12.35643,0 -25.06227,-0.84581 -37.37547,-0.00589c-2.35156,0.16041 -4.65562,0.82034 -7.00642,0.99141c-1.13698,0.08274 -2.30424,-0.50935 -3.41346,-0.24629c-1.45048,0.34399 -2.5441,1.67957 -3.99993,2.00014c-2.05191,0.45183 -4.1999,0.17479 -6.29907,0.26396c0,0 -10.00336,-0.01604 -10.00336,-10.01604c0,-10 10.00178,-10.01546 10.00178,-10.01546c1.96253,0.30837 3.76094,-1.32667 5.70445,-1.73824c2.15002,-0.45531 4.40305,-0.04828 6.59162,-0.24837c2.34723,-0.2146 4.65681,-0.85766 7.00883,-1.01115c12.80249,-0.83549 25.95103,-0.00761 38.78964,-0.00761l2.00043,0.00109c0,0 10.00319,0.016 10.00319,10.016z" data-paper-data="{&quot;noHover&quot;:false,&quot;origItem&quot;:[&quot;Path&quot;,{&quot;applyMatrix&quot;:true,&quot;segments&quot;:[[275.5,62.16666],[[273.5,62.16666],[0,0],[-12.83861,0]],[[234.79111,62.19181],[12.80249,-0.83549],[-2.35202,0.15349]],[[227.79111,63.19181],[2.34723,-0.2146],[-2.18857,0.20009]],[[221.20247,63.43417],[2.15002,-0.45531],[-1.94351,0.41158]],[[215.5,65.16666],[1.96253,0.30837],[0,0]],[[205.5,75.16666],[0,-10],[0,10]],[[215.5,85.16666],[0,0],[2.09918,-0.08917]],[[221.79753,84.89915],[-2.05191,0.45183],[1.45583,-0.32057]],[[225.79753,82.89915],[-1.45048,0.34399],[1.10922,-0.26306]],[[229.20889,83.1415],[-1.13698,0.08274],[2.35081,-0.17107]],[[236.20889,82.1415],[-2.35156,0.16041],[12.31319,-0.83992]],[[273.5,82.16666],[-12.35643,0],[0,0]],[275.5,82.16666],[[285.5,72.16666],[0,10],[0,-10]]],&quot;closed&quot;:true,&quot;fillColor&quot;:[1,1,1]}]}" fill="#30302a" stroke="none" stroke-width="0.5"/><path d="M268.54993,20.16925c0,10 -10.00742,10.02373 -10.00742,10.02373l-3.00229,0.00339c-5.71019,0 -11.09391,-0.62735 -16.75463,-1.00518c-2.6993,-0.18017 -5.44632,0.1872 -8.14358,-0.02122c-4.33454,-0.33493 -7.56233,-1.27832 -11.6139,-2.28364c0,0 -9.70439,-2.45054 -7.27904,-12.15196c2.42536,-9.70143 12.13533,-7.29781 12.13533,-7.29781c5.78032,1.45822 10.31926,1.30531 16.32584,1.70527c5.22932,0.3482 10.07875,1.0008 15.33362,1.0008l3.00159,0.00316c0,0 10.00449,0.02346 10.00449,10.02346z" data-paper-data="{&quot;noHover&quot;:false,&quot;origItem&quot;:[&quot;Path&quot;,{&quot;applyMatrix&quot;:true,&quot;segments&quot;:[[258.5,10.16666],[[255.5,10.16666],[0,0],[-5.25487,0]],[[240.20889,9.19181],[5.22932,0.3482],[-6.00658,-0.39996]],[[223.92536,7.46523],[5.78032,1.45822],[0,0]],[[211.79857,14.7413],[2.42536,-9.70143],[-2.42536,9.70143]],[[219.07464,26.86808],[0,0],[4.05158,1.00532]],[[230.67519,29.13258],[-4.33454,-0.33493],[2.69727,0.20842]],[[238.79111,29.1415],[-2.6993,-0.18017],[5.66072,0.37783]],[[255.5,30.16666],[-5.71019,0],[0,0]],[258.5,30.16666],[[268.5,20.16666],[0,10],[0,-10]]],&quot;closed&quot;:true,&quot;fillColor&quot;:[1,1,1]}]}" fill="#30302a" stroke="none" stroke-width="0.5"/><path d="M-10.5,377.16666v-394h32v394z" fill="#110808" stroke="#000000" stroke-width="0.5"/><path d="M458.5,381.16666v-394h32v394z" fill="#110808" stroke="#000000" stroke-width="0.5"/><path d="M228,454v-98.78051c6.60243,0.51957 13.424,0.11955 20,-0.01372v98.79423z" fill="#797575" stroke="#000000" stroke-width="0.5"/><path d="M228,293.34156c5.86404,0.17844 11.81111,0.35513 17.48538,-0.22357c0.84317,-0.08599 1.68106,-0.23678 2.51462,-0.42756v42.47622c-4.83333,0 -9.66667,0 -14.5,0c-1.86266,0 -3.70581,0.0903 -5.5,0.02786z" fill="#797575" stroke="#000000" stroke-width="0.5"/><path d="M228,201.16666c5.16667,0 10.33333,0 15.5,0c1.49911,0 2.99928,-0.02388 4.5,-0.06035v71.12263c-1.46796,0.45137 -2.95201,0.8378 -4.48538,0.98638c-5.03506,0.48787 -10.43395,-0.01456 -15.51462,-0.04704z" fill="#797575" stroke="#000000" stroke-width="0.5"/><path d="M248,181.16601c-2.12436,0.00022 -3.74926,0.00065 -4.5,0.00065c-5.16667,0 -10.33333,0 -15.5,0v-41.4817c6.67114,0.73242 13.25052,2.02162 20,2.38432z" fill="#797575" stroke="#000000" stroke-width="0.5"/><path d="M228,83.04563c0.40401,0.07087 0.8082,0.12503 1.20889,0.09587c2.35081,-0.17107 4.64844,-0.83959 7,-1c3.90545,-0.2664 7.84192,-0.36128 11.79111,-0.36664v40.293c-6.70996,-0.36525 -13.30267,-1.65571 -20,-2.38653z" fill="#797575" stroke="#000000" stroke-width="0.5"/><path d="M228,-94h20v103.82212c-2.56415,-0.20243 -5.12263,-0.45262 -7.79111,-0.6303c-4.52887,-0.30156 -8.19936,-0.30094 -12.20889,-0.90743z" fill="#797575" stroke="#000000" stroke-width="0.5"/><path d="M248,61.81386c-4.42081,-0.00102 -8.83037,0.09221 -13.20889,0.37796c-2.28221,0.14894 -4.51614,0.74831 -6.79111,0.97981v-34.33394c0.85253,0.12244 1.73766,0.22245 2.67519,0.2949c2.69727,0.20842 5.41661,-0.17125 8.11592,0.00892c3.12912,0.20885 6.15962,0.50006 9.20889,0.71875z" fill="#797575" stroke="#000000" stroke-width="0.5"/><path d="M256.25526,256.82681v-177.17718h129.12913v177.17718z" fill="#30302a" stroke="none" stroke-width="0"/><path d="M248.75,392.58333v-439.5h40.5v439.5z" fill="#30302a" stroke="none" stroke-width="0"/><path d="M185.75,405.58333v-439.5h40.5v439.5z" fill="#30302a" stroke="none" stroke-width="0"/><path d="M-2.5,379.16666v-22h473v22z" fill="#110808" stroke="#110808" stroke-width="2"/></g></g></svg>