<svg version="1.1" xmlns="http://www.w3.org/2000/svg" xmlns:xlink="http://www.w3.org/1999/xlink" width="571.5" height="548.5" viewBox="0,0,571.5,548.5"><g transform="translate(34.75,94.25)"><g data-paper-data="{&quot;isPaintingLayer&quot;:true}" fill-rule="nonzero" stroke-linecap="butt" stroke-linejoin="miter" stroke-miterlimit="10" stroke-dasharray="" stroke-dashoffset="0" style="mix-blend-mode: normal"><path d="M-34.5,395.16666v-451h571v451zM268.5,196.16666h-1c-1.94885,0.08212 -3.83951,-0.70967 -5.77817,-0.92508c-1.65647,-0.18405 -3.34353,0.18405 -5,0c-4.01056,-0.44562 -7.99092,-1.53269 -12,-2c-3.58524,-0.41791 -7.44274,0.48549 -11,0c-1.36174,-0.18585 -2.63487,-0.84088 -4,-1c-2.52299,-0.29409 -5.11237,0.45875 -7.62001,0.0542c-1.04064,-0.16788 -1.9525,-0.88227 -3,-1c-3.05211,-0.34302 -6.21707,-0.00897 -9.17647,-0.83055c0,0 -9.70143,-2.42536 -12.12678,7.27607c-2.42536,9.70143 7.27607,12.12678 7.27607,12.12678c3.53248,0.83069 7.21634,0.77366 10.82353,1.16945c1.0478,0.11497 1.95487,0.86281 3,1c2.76963,0.36356 5.61226,-0.32354 8.37999,0.0542c1.36174,0.18585 2.63487,0.84088 4,1c3.58524,0.41791 7.44274,-0.48549 11,0c8.35197,1.13987 16.75106,2.92459 25.22183,3.07492h1c0,0 10,0 10,-10c0,-10 -10,-10 -10,-10zM263.5,120.16666c-17.33333,0 -38.66667,0 -56,0c0,0 -10,0 -10,10c0,10 10,10 10,10c17.33333,0 38.66667,0 56,0c0,0 10,0 10,-10c0,-10 -10,-10 -10,-10zM263.5,41.16666h-3c-3.37456,0 -7.29429,-0.41712 -10.60182,0.12913c-2.08001,0.34352 -3.90858,1.73469 -6,2c-3.31751,0.42084 -7.02037,-0.12913 -10.39818,-0.12913c-7.66667,0 -15.33333,0 -23,0c0,0 -10,0 -10,10c0,10 10,10 10,10c7.66667,0 15.33333,0 23,0c4.41136,0 9.24747,0.51924 13.60182,-0.12913c2.0852,-0.31049 3.92217,-1.64353 6,-2c2.19475,-0.37653 5.14803,0.12913 7.39818,0.12913h3c0,0 10,0 10,-10c0,-10 -10,-10 -10,-10zM263.5,264.16666h-3c-2.59868,0 -5.91146,0.62152 -8.39818,0.12913c-1.03402,-0.20474 -1.95184,-0.88837 -3,-1c-3.44059,-0.36643 -6.95173,0.41368 -10.37999,-0.0542c-4.01812,-0.54839 -7.97536,-1.53088 -12,-2c-4.62475,-0.53907 -8.66665,0.09473 -13.26067,-0.88073c0,0 -9.80581,-1.96116 -11.76697,7.84465c-1.96116,9.80581 7.84465,11.76697 7.84465,11.76697c1.99193,0.38184 3.95762,0.94403 5.97579,1.14553c2.90674,0.29021 5.86918,-0.42128 8.76354,-0.02626c4.01812,0.54839 7.97536,1.53088 12,2c3.18516,0.37127 6.43528,-0.42909 9.62001,-0.0542c1.04686,0.12323 1.95735,0.84513 3,1c3.71817,0.55227 7.83852,0.12913 11.60182,0.12913h3c0,0 10,0 10,-10c0,-10 -10,-10 -10,-10zM265.5,337.16666c-16.33333,0 -34.66667,0 -51,0c0,0 -10,0 -10,10c0,10 10,10 10,10c16.33333,0 34.66667,0 51,0c0,0 10,0 10,-10c0,-10 -10,-10 -10,-10z" fill="#30302a" stroke="#000000" stroke-width="0.5"/><path d="M275.55,347.16666c0,10 -10.00345,10.01825 -10.00345,10.01825c-16.33333,0 -34.75976,0 -51.0931,0c0,0 -10.00345,-0.01825 -10.00345,-10.01825c0,-10 10.00345,-10.01825 10.00345,-10.01825c16.33333,0 34.75976,0 51.0931,0c0,0 10.00345,0.01825 10.00345,10.01825z" data-paper-data="{&quot;noHover&quot;:false,&quot;origItem&quot;:[&quot;Path&quot;,{&quot;applyMatrix&quot;:true,&quot;segments&quot;:[[[265.5,337.16666],[0,0],[-16.33333,0]],[[214.5,337.16666],[16.33333,0],[0,0]],[[204.5,347.16666],[0,-10],[0,10]],[[214.5,357.16666],[0,0],[16.33333,0]],[[265.5,357.16666],[-16.33333,0],[0,0]],[[275.5,347.16666],[0,10],[0,-10]]],&quot;closed&quot;:true,&quot;fillColor&quot;:[1,1,1]}]}" fill="#30302a" stroke="none" stroke-width="0.5"/><path d="M273.54993,274.1693c0,10 -10.00446,10.01815 -10.00446,10.01815l-3.00105,0.00216c-3.76331,0 -7.89325,0.43607 -11.61141,-0.11621c-1.04265,-0.15487 -1.95715,-0.87327 -3.00402,-0.9965c-3.18473,-0.37489 -6.47112,0.43579 -9.65628,0.06452c-4.02464,-0.46912 -8.01797,-1.4735 -12.03609,-2.02188c-2.89436,-0.39502 -5.86162,0.30735 -8.76836,0.01715c-2.01816,-0.20149 -3.98568,-0.76908 -5.97761,-1.15093c0,0 -9.80729,-1.9801 -7.84613,-11.78591c1.96116,-9.80581 11.77185,-7.86122 11.77185,-7.86122c4.59402,0.97546 8.64582,0.32807 13.27056,0.86714c4.02464,0.46912 8.02368,1.43789 12.04179,1.98627c3.42826,0.46788 6.97212,-0.29323 10.41271,0.0732c1.04816,0.11163 1.97029,0.80187 3.00431,1.00662c2.48672,0.49239 5.80276,-0.1218 8.40143,-0.1218l3.00057,0.00173c0,0 10.00219,0.01749 10.00219,10.01749z" data-paper-data="{&quot;noHover&quot;:false,&quot;origItem&quot;:[&quot;Path&quot;,{&quot;applyMatrix&quot;:true,&quot;segments&quot;:[[263.5,264.16666],[[260.5,264.16666],[0,0],[-2.59868,0]],[[252.10182,264.29578],[2.48672,0.49239],[-1.03402,-0.20474]],[[249.10182,263.29578],[1.04816,0.11163],[-3.44059,-0.36643]],[[238.72183,263.24158],[3.42826,0.46788],[-4.01812,-0.54839]],[[226.72183,261.24158],[4.02464,0.46912],[-4.62475,-0.53907]],[[213.46116,260.36085],[4.59402,0.97546],[0,0]],[[201.69419,268.2055],[1.96116,-9.80581],[-1.96116,9.80581]],[[209.53884,279.97246],[0,0],[1.99193,0.38184]],[[215.51462,281.11799],[-2.01816,-0.20149],[2.90674,0.29021]],[[224.27817,281.09173],[-2.89436,-0.39502],[4.01812,0.54839]],[[236.27817,283.09173],[-4.02464,-0.46912],[3.18516,0.37127]],[[245.89818,283.03753],[-3.18473,-0.37489],[1.04686,0.12323]],[[248.89818,284.03753],[-1.04265,-0.15487],[3.71817,0.55227]],[[260.5,284.16666],[-3.76331,0],[0,0]],[263.5,284.16666],[[273.5,274.16666],[0,10],[0,-10]]],&quot;closed&quot;:true,&quot;fillColor&quot;:[1,1,1]}]}" fill="#30302a" stroke="none" stroke-width="0.5"/><path d="M278.54987,206.17033c0,10 -10.00385,10.01589 -10.00385,10.01589l-1.00024,0.00056c-8.47077,-0.15033 -16.89564,-1.90935 -25.24761,-3.04921c-3.55726,-0.48549 -7.46269,0.41354 -11.04793,-0.00436c-1.36513,-0.15912 -2.64871,-0.82358 -4.01045,-1.00943c-2.76773,-0.37774 -5.61732,0.29839 -8.38695,-0.06517c-1.04513,-0.13719 -1.95395,-0.88933 -3.00176,-1.0043c-3.60719,-0.39579 -7.29294,-0.34557 -10.82543,-1.17626c0,0 -9.70198,-2.44203 -7.27662,-12.14346c2.42536,-9.70143 12.1308,-7.29001 12.1308,-7.29001c2.9594,0.82158 6.12759,0.48152 9.1797,0.82454c1.0475,0.11773 1.96044,0.83048 3.00108,0.99836c2.50764,0.40455 5.10818,-0.35994 7.63116,-0.06585c1.36513,0.15912 2.64873,0.8081 4.01048,0.99395c3.55726,0.48549 7.46249,-0.41323 11.04773,0.00467c4.00908,0.46731 8.00735,1.57623 12.01791,2.02185c1.65647,0.18405 3.3449,-0.18041 5.00138,0.00364c1.93865,0.21541 3.83054,1.01148 5.77939,0.92937l1.00008,0.00036c0,0 10.00113,0.01486 10.00113,10.01486z" data-paper-data="{&quot;noHover&quot;:false,&quot;origItem&quot;:[&quot;Path&quot;,{&quot;applyMatrix&quot;:true,&quot;segments&quot;:[[268.5,196.16666],[[267.5,196.16666],[0,0],[-1.94885,0.08212]],[[261.72183,195.24158],[1.93865,0.21541],[-1.65647,-0.18405]],[[256.72183,195.24158],[1.65647,0.18405],[-4.01056,-0.44562]],[[244.72183,193.24158],[4.00908,0.46731],[-3.58524,-0.41791]],[[233.72183,193.24158],[3.55726,0.48549],[-1.36174,-0.18585]],[[229.72183,192.24158],[1.36513,0.15912],[-2.52299,-0.29409]],[[222.10182,192.29578],[2.50764,0.40455],[-1.04064,-0.16788]],[[219.10182,191.29578],[1.0475,0.11773],[-3.05211,-0.34302]],[[209.92536,190.46523],[2.9594,0.82158],[0,0]],[[197.79857,197.7413],[2.42536,-9.70143],[-2.42536,9.70143]],[[205.07464,209.86808],[0,0],[3.53248,0.83069]],[[215.89818,211.03753],[-3.60719,-0.39579],[1.0478,0.11497]],[[218.89818,212.03753],[-1.04513,-0.13719],[2.76963,0.36356]],[[227.27817,212.09173],[-2.76773,-0.37774],[1.36174,0.18585]],[[231.27817,213.09173],[-1.36513,-0.15912],[3.58524,0.41791]],[[242.27817,213.09173],[-3.55726,-0.48549],[8.35197,1.13987]],[[267.5,216.16666],[-8.47077,-0.15033],[0,0]],[268.5,216.16666],[[278.5,206.16666],[0,10],[0,-10]]],&quot;closed&quot;:true,&quot;fillColor&quot;:[1,1,1]}]}" fill="#30302a" stroke="none" stroke-width="0.5"/><path d="M273.55,130.16666c0,10 -10.00291,10.01682 -10.00291,10.01682c-17.33333,0 -38.76084,0 -56.09417,0c0,0 -10.00291,-0.01682 -10.00291,-10.01682c0,-10 10.00291,-10.01682 10.00291,-10.01682c17.33333,0 38.76084,0 56.09417,0c0,0 10.00291,0.01682 10.00291,10.01682z" data-paper-data="{&quot;noHover&quot;:false,&quot;origItem&quot;:[&quot;Path&quot;,{&quot;applyMatrix&quot;:true,&quot;segments&quot;:[[[263.5,120.16666],[0,0],[-17.33333,0]],[[207.5,120.16666],[17.33333,0],[0,0]],[[197.5,130.16666],[0,-10],[0,10]],[[207.5,140.16666],[0,0],[17.33333,0]],[[263.5,140.16666],[-17.33333,0],[0,0]],[[273.5,130.16666],[0,10],[0,-10]]],&quot;closed&quot;:true,&quot;fillColor&quot;:[1,1,1]}]}" fill="#30302a" stroke="none" stroke-width="0.5"/><path d="M273.54998,51.16526c0,10 -10.00262,10.01744 -10.00262,10.01744l-3.00065,0.0018c-2.25015,0 -5.20631,-0.49942 -7.40107,-0.12289c-2.07783,0.35647 -3.92455,1.70203 -6.00975,2.01251c-4.35436,0.64837 -9.23973,0.14017 -13.65108,0.14017c-7.66667,0 -15.36434,-0.0285 -23.03101,-0.0285c0,0 -10.00379,-0.0178 -10.00379,-10.0178c0,-10 10.00265,-10.01745 10.00265,-10.01745c7.66667,0 15.36258,-0.0305 23.02925,-0.0305c3.3778,0 7.12939,0.55707 10.44691,0.13623c2.09142,-0.26531 3.92754,-1.64924 6.00755,-1.99275c3.30753,-0.54624 7.23433,-0.1181 10.60889,-0.1181l3.0009,0.00203c0,0 10.00381,0.0178 10.00381,10.0178z" data-paper-data="{&quot;noHover&quot;:false,&quot;origItem&quot;:[&quot;Path&quot;,{&quot;applyMatrix&quot;:true,&quot;segments&quot;:[[263.5,41.16666],[[260.5,41.16666],[0,0],[-3.37456,0]],[[249.89818,41.29578],[3.30753,-0.54624],[-2.08001,0.34352]],[[243.89818,43.29578],[2.09142,-0.26531],[-3.31751,0.42084]],[[233.5,43.16666],[3.3778,0],[-7.66667,0]],[[210.5,43.16666],[7.66667,0],[0,0]],[[200.5,53.16666],[0,-10],[0,10]],[[210.5,63.16666],[0,0],[7.66667,0]],[[233.5,63.16666],[-7.66667,0],[4.41136,0]],[[247.10182,63.03753],[-4.35436,0.64837],[2.0852,-0.31049]],[[253.10182,61.03753],[-2.07783,0.35647],[2.19475,-0.37653]],[[260.5,61.16666],[-2.25015,0],[0,0]],[263.5,61.16666],[[273.5,51.16666],[0,10],[0,-10]]],&quot;closed&quot;:true,&quot;fillColor&quot;:[1,1,1]}]}" fill="#30302a" stroke="none" stroke-width="0.5"/><path d="M-10.5,377.16666v-394h32v394z" fill="#110808" stroke="#000000" stroke-width="0.5"/><path d="M458.5,381.16666v-394h32v394z" fill="#110808" stroke="#000000" stroke-width="0.5"/><path d="M228,454v-96.83334c6.60526,0 13.34853,0 20,0v96.83334z" fill="#797575" stroke="#000000" stroke-width="0.5"/><path d="M228,281.69842c2.7554,0.50133 5.50073,1.06956 8.27817,1.39331c3.18516,0.37127 6.43528,-0.42909 9.62001,-0.0542c0.73697,0.08675 1.40634,0.47019 2.10182,0.74363v53.38549c-6.66667,0 -13.33333,0 -20,0z" fill="#797575" stroke="#000000" stroke-width="0.5"/><path d="M228,212.23063c1.09739,0.26502 2.15674,0.73039 3.27817,0.8611c3.58524,0.41791 7.44274,-0.48549 11,0c1.90473,0.25996 3.81191,0.55345 5.72183,0.85345v49.26963c-3.08593,-0.13341 -6.21513,0.44481 -9.27817,0.02677c-3.59205,-0.49024 -7.13544,-1.3274 -10.72183,-1.83458z" fill="#797575" stroke="#000000" stroke-width="0.5"/><path d="M228,140.16666c6.65312,0 13.43076,0 20,0v53.57055c-1.09138,-0.19429 -2.1837,-0.36805 -3.27817,-0.49563c-3.58524,-0.41791 -7.44274,0.48549 -11,0c-1.36174,-0.18585 -2.63487,-0.84088 -4,-1c-0.57111,-0.06657 -1.14563,-0.0795 -1.72183,-0.06434z" fill="#797575" stroke="#000000" stroke-width="0.5"/><path d="M228,63.16666c1.83333,0 3.66667,0 5.5,0c4.41136,0 9.24747,0.51924 13.60182,-0.12913c0.30417,-0.04529 0.60305,-0.11234 0.89818,-0.19494v57.32407c-6.66667,0 -13.33333,0 -20,0z" fill="#797575" stroke="#000000" stroke-width="0.5"/><path d="M228,-94h20v135.86088c-1.35432,0.54011 -2.66614,1.25278 -4.10182,1.43491c-3.31751,0.42084 -7.02037,-0.12913 -10.39818,-0.12913c-1.83333,0 -3.66667,0 -5.5,0z" fill="#797575" stroke="#000000" stroke-width="0.5"/><path d="M248.75,392.58333v-439.5h40.5v439.5z" fill="#30302a" stroke="none" stroke-width="0"/><path d="M184.75,404.58333v-439.5h40.5v439.5z" fill="#30302a" stroke="none" stroke-width="0"/><path d="M-5.5,373.16666v-16h468v16z" fill="#110808" stroke="#110808" stroke-width="2"/></g></g></svg>