<svg version="1.1" xmlns="http://www.w3.org/2000/svg" xmlns:xlink="http://www.w3.org/1999/xlink" width="571.5" height="548.5" viewBox="0,0,571.5,548.5"><g transform="translate(34.75,94.25)"><g data-paper-data="{&quot;isPaintingLayer&quot;:true}" fill-rule="nonzero" stroke-linecap="butt" stroke-linejoin="miter" stroke-miterlimit="10" stroke-dasharray="" stroke-dashoffset="0" style="mix-blend-mode: normal"><path d="M-34.5,395.16666v-451h571v451zM271.5,85.16666h-2c-5.25601,0 -11.2334,0.83212 -16.39818,0.12913c-1.04446,-0.14216 -1.95487,-0.86281 -3,-1c-1.85188,-0.24309 -3.73426,-0.10109 -5.60182,-0.12913c-14.32526,-0.21504 -28.67282,0 -43,0c0,0 -10,0 -10,10c0,10 10,10 10,10c9.66667,0 19.33333,0 29,0c5.18934,0 11.27776,-0.95519 16.39818,-0.12913c1.04064,0.16788 1.95312,0.87689 3,1c6.34926,0.74664 13.18941,0.12913 19.60182,0.12913h2c0,0 10,0 10,-10c0,-10 -10,-10 -10,-10zM267.5,153.16666c-5.66667,0 -13.33333,0 -19,0c-2.25953,0 -4.53939,0.38047 -6.77817,0.07492c-13.37181,-1.82497 -26.57249,-2.07492 -40.22183,-2.07492c0,0 -10,0 -10,10c0,10 10,10 10,10c5.33333,0 10.66667,0 16,0c1.79991,0 3.63255,-0.47873 5.39818,-0.12913c1.03402,0.20474 1.95487,0.86281 3,1c3.10012,0.40694 6.27516,-0.31506 9.37999,0.0542c1.36475,0.16231 2.63487,0.84088 4,1c8.49694,0.99043 17.65694,0.07492 26.22183,0.07492h2c0,0 10,0 10,-10c0,-10 -10,-10 -10,-10zM265.5,233.16666c-20,0 -44,0 -64,0c0,0 -10,0 -10,10c0,10 10,10 10,10c20,0 44,0 64,0c0,0 10,0 10,-10c0,-10 -10,-10 -10,-10zM265.5,22.16666h-2c-8.26655,0 -17.01674,-0.78792 -25.22183,0.07492c-1.36683,0.14374 -2.63826,0.81415 -4,1c-4.59213,0.62673 -10.1931,-0.09524 -14.77817,-0.07492c-6.73926,0.02986 -13.8769,0.75865 -20.42536,2.29857c0,0 -9.70143,2.42536 -7.27607,12.12678c2.42536,9.70143 12.12678,7.27607 12.12678,7.27607c2.44009,-0.67741 5.04014,-0.49878 7.56002,-0.75009c1.69128,-0.16868 3.31218,-0.79966 5,-1c4.86517,-0.57749 10.08705,0.09357 15.01462,0.04867c3.09463,-0.0282 6.14873,-0.70943 9.22183,-1.07492c7.30344,-0.86862 15.39241,0.07492 22.77817,0.07492h2c0,0 10,0 10,-10c0,-10 -10,-10 -10,-10zM261.5,313.16666h-3c-3.16165,0 -7.33755,0.73515 -10.39818,0.12913c-2.51295,-0.49758 -5.04045,-1.08562 -7.60182,-1.12913c-11.65938,-0.19805 -23.33855,0 -35,0c0,0 -10,0 -10,10c0,10 10,10 10,10c8.66667,0 17.33333,0 26,0c3.16165,0 7.33755,-0.73515 10.39818,-0.12913c1.03402,0.20474 1.95735,0.84513 3,1c4.3392,0.64452 9.20864,0.12913 13.60182,0.12913h3c0,0 10,0 10,-10c0,-10 -10,-10 -10,-10z" fill="#30302a" stroke="#30302a" stroke-width="0.5"/><path d="M271.55,323.16724c0,10 -10.00315,10.01689 -10.00315,10.01689l-3.00071,0.0018c-4.39318,0 -9.27169,0.52967 -13.61089,-0.11485c-1.04265,-0.15487 -1.96958,-0.79167 -3.00359,-0.99641c-3.06063,-0.60603 -7.28036,0.1409 -10.44201,0.1409c-8.66667,0 -17.37035,-0.03293 -26.03702,-0.03293c0,0 -10.00262,-0.01671 -10.00262,-10.01671c0,-10 10.00321,-10.01691 10.00321,-10.01691c11.66145,0 23.41504,-0.22208 35.07442,-0.02403c2.56137,0.04351 5.10324,0.64609 7.61619,1.14368c3.06063,0.60603 7.24122,-0.11986 10.40287,-0.11986l3.00062,0.0017c0,0 10.00268,0.01673 10.00268,10.01673z" data-paper-data="{&quot;noHover&quot;:false,&quot;origItem&quot;:[&quot;Path&quot;,{&quot;applyMatrix&quot;:true,&quot;segments&quot;:[[261.5,313.16666],[[258.5,313.16666],[0,0],[-3.16165,0]],[[248.10182,313.29578],[3.06063,0.60603],[-2.51295,-0.49758]],[[240.5,312.16666],[2.56137,0.04351],[-11.65938,-0.19805]],[[205.5,312.16666],[11.66145,0],[0,0]],[[195.5,322.16666],[0,-10],[0,10]],[[205.5,332.16666],[0,0],[8.66667,0]],[[231.5,332.16666],[-8.66667,0],[3.16165,0]],[[241.89818,332.03753],[-3.06063,-0.60603],[1.03402,0.20474]],[[244.89818,333.03753],[-1.04265,-0.15487],[4.3392,0.64452]],[[258.5,333.16666],[-4.39318,0],[0,0]],[261.5,333.16666],[[271.5,323.16666],[0,10],[0,-10]]],&quot;closed&quot;:true,&quot;fillColor&quot;:[1,1,1]}]}" fill="#30302a" stroke="none" stroke-width="0.5"/><path d="M275.55,243.16666c0,10 -10.00228,10.01491 -10.00228,10.01491c-20,0 -44.09545,0 -64.09545,0c0,0 -10.00228,-0.01491 -10.00228,-10.01491c0,-10 10.00228,-10.01491 10.00228,-10.01491c20,0 44.09545,0 64.09545,0c0,0 10.00228,0.01491 10.00228,10.01491z" data-paper-data="{&quot;noHover&quot;:false,&quot;origItem&quot;:[&quot;Path&quot;,{&quot;applyMatrix&quot;:true,&quot;segments&quot;:[[[265.5,233.16666],[0,0],[-20,0]],[[201.5,233.16666],[20,0],[0,0]],[[191.5,243.16666],[0,-10],[0,10]],[[201.5,253.16666],[0,0],[20,0]],[[265.5,253.16666],[-20,0],[0,0]],[[275.5,243.16666],[0,10],[0,-10]]],&quot;closed&quot;:true,&quot;fillColor&quot;:[1,1,1]}]}" fill="#30302a" stroke="none" stroke-width="0.5"/><path d="M275.54998,32.16509c0,10 -10.00171,10.01464 -10.00171,10.01464l-2.00023,0.00081c-7.38576,0 -15.4905,-0.91922 -22.79394,-0.0506c-3.0731,0.36549 -6.16937,1.05754 -9.26399,1.08574c-4.92758,0.0449 -10.18304,-0.65049 -15.04821,-0.073c-1.68782,0.20034 -3.31024,0.82842 -5.00152,0.9971c-2.51988,0.25131 -5.12157,0.06888 -7.56167,0.74629c0,0 -9.70453,2.41228 -12.12989,-7.28915c-2.42536,-9.70143 7.27714,-12.14305 7.27714,-12.14305c6.54846,-1.53992 13.69459,-2.28709 20.43385,-2.31694c4.58506,-0.02031 10.23025,0.68154 14.82237,0.05482c1.36174,-0.18585 2.64887,-0.85238 4.0157,-0.99611c8.20509,-0.86284 16.98236,-0.0466 25.24891,-0.0466l2.00036,0.00097c0,0 10.00283,0.01509 10.00283,10.01509z" data-paper-data="{&quot;noHover&quot;:false,&quot;origItem&quot;:[&quot;Path&quot;,{&quot;applyMatrix&quot;:true,&quot;segments&quot;:[[265.5,22.16666],[[263.5,22.16666],[0,0],[-8.26655,0]],[[238.27817,22.24158],[8.20509,-0.86284],[-1.36683,0.14374]],[[234.27817,23.24158],[1.36174,-0.18585],[-4.59213,0.62673]],[[219.5,23.16666],[4.58506,-0.02031],[-6.73926,0.02986]],[[199.07464,25.46523],[6.54846,-1.53992],[0,0]],[[191.79857,37.59201],[-2.42536,-9.70143],[2.42536,9.70143]],[[203.92536,44.86808],[0,0],[2.44009,-0.67741]],[[211.48538,44.11799],[-2.51988,0.25131],[1.69128,-0.16868]],[[216.48538,43.11799],[-1.68782,0.20034],[4.86517,-0.57749]],[[231.5,43.16666],[-4.92758,0.0449],[3.09463,-0.0282]],[[240.72183,42.09173],[-3.0731,0.36549],[7.30344,-0.86862]],[[263.5,42.16666],[-7.38576,0],[0,0]],[265.5,42.16666],[[275.5,32.16666],[0,10],[0,-10]]],&quot;closed&quot;:true,&quot;fillColor&quot;:[1,1,1]}]}" fill="#30302a" stroke="none" stroke-width="0.5"/><path d="M277.54999,163.16759c0,10 -10.00247,10.01462 -10.00247,10.01462l-2.0003,0.0009c-8.56489,0 -17.75177,0.94472 -26.24871,-0.04571c-1.36513,-0.15912 -2.6516,-0.83352 -4.01635,-0.99584c-3.10483,-0.36927 -6.31707,0.34027 -9.41719,-0.06667c-1.04513,-0.13719 -1.97281,-0.80268 -3.00682,-1.00742c-1.76563,-0.34961 -3.60263,0.12218 -5.40253,0.12218c-5.33333,0 -10.67058,-0.01011 -16.00391,-0.01011c0,0 -10.00167,-0.01428 -10.00167,-10.01428c0,-10 10.00263,-10.01467 10.00263,-10.01467c13.64935,0 26.92841,0.22682 40.30023,2.05179c2.23877,0.30554 4.52939,-0.06317 6.78892,-0.06317c5.66667,0 13.3397,0.01403 19.00637,0.01403c0,0 10.00183,0.01436 10.00183,10.01436z" data-paper-data="{&quot;noHover&quot;:false,&quot;origItem&quot;:[&quot;Path&quot;,{&quot;applyMatrix&quot;:true,&quot;segments&quot;:[[[267.5,153.16666],[0,0],[-5.66667,0]],[[248.5,153.16666],[5.66667,0],[-2.25953,0]],[[241.72183,153.24158],[2.23877,0.30554],[-13.37181,-1.82497]],[[201.5,151.16666],[13.64935,0],[0,0]],[[191.5,161.16666],[0,-10],[0,10]],[[201.5,171.16666],[0,0],[5.33333,0]],[[217.5,171.16666],[-5.33333,0],[1.79991,0]],[[222.89818,171.03753],[-1.76563,-0.34961],[1.03402,0.20474]],[[225.89818,172.03753],[-1.04513,-0.13719],[3.10012,0.40694]],[[235.27817,172.09173],[-3.10483,-0.36927],[1.36475,0.16231]],[[239.27817,173.09173],[-1.36513,-0.15912],[8.49694,0.99043]],[[265.5,173.16666],[-8.56489,0],[0,0]],[267.5,173.16666],[[277.5,163.16666],[0,10],[0,-10]]],&quot;closed&quot;:true,&quot;fillColor&quot;:[1,1,1]}]}" fill="#30302a" stroke="none" stroke-width="0.5"/><path d="M281.55,95.16713c0,10 -10.00208,10.0138 -10.00208,10.0138l-2.00024,0.00079c-6.41241,0 -13.26059,0.63292 -19.60986,-0.11372c-1.04688,-0.12311 -1.96173,-0.82926 -3.00237,-0.99714c-5.12042,-0.82606 -11.27295,0.13798 -16.46229,0.13798c-9.66667,0 -19.35477,-0.02918 -29.02143,-0.02918c0,0 -10.00172,-0.01364 -10.00172,-10.01364c0,-10 10.00213,-10.01382 10.00213,-10.01382c14.32718,0 28.75278,-0.24046 43.07803,-0.02541c1.86756,0.02803 3.75943,-0.10454 5.61131,0.13855c1.04513,0.13719 1.95934,0.86356 3.0038,1.00573c5.16477,0.70299 11.14673,-0.11833 16.40274,-0.11833l2.00021,0.00074c0,0 10.00177,0.01367 10.00177,10.01367z" data-paper-data="{&quot;noHover&quot;:false,&quot;origItem&quot;:[&quot;Path&quot;,{&quot;applyMatrix&quot;:true,&quot;segments&quot;:[[271.5,85.16666],[[269.5,85.16666],[0,0],[-5.25601,0]],[[253.10182,85.29578],[5.16477,0.70299],[-1.04446,-0.14216]],[[250.10182,84.29578],[1.04513,0.13719],[-1.85188,-0.24309]],[[244.5,84.16666],[1.86756,0.02803],[-14.32526,-0.21504]],[[201.5,84.16666],[14.32718,0],[0,0]],[[191.5,94.16666],[0,-10],[0,10]],[[201.5,104.16666],[0,0],[9.66667,0]],[[230.5,104.16666],[-9.66667,0],[5.18934,0]],[[246.89818,104.03753],[-5.12042,-0.82606],[1.04064,0.16788]],[[249.89818,105.03753],[-1.04688,-0.12311],[6.34926,0.74664]],[[269.5,105.16666],[-6.41241,0],[0,0]],[271.5,105.16666],[[281.5,95.16666],[0,10],[0,-10]]],&quot;closed&quot;:true,&quot;fillColor&quot;:[1,1,1]}]}" fill="#30302a" stroke="none" stroke-width="0.5"/><path d="M-10.5,377.16666v-394h32v394z" fill="#110808" stroke="#000000" stroke-width="0.5"/><path d="M458.5,381.16666v-394h32v394z" fill="#110808" stroke="#000000" stroke-width="0.5"/><path d="M228,-94h20v115.84023c-3.28255,-0.01944 -6.5431,0.06707 -9.72183,0.40135c-1.36683,0.14374 -2.63826,0.81415 -4,1c-1.96128,0.26767 -4.10658,0.28933 -6.27817,0.22787z" fill="#797575" stroke="#000000" stroke-width="0.5"/><path d="M248,84.15535c-1.1651,-0.01985 -2.33543,0.02878 -3.5,0.0113c-5.49752,-0.08253 -10.99832,-0.10171 -16.5,-0.09402v-40.96693c1.17722,0.04275 2.34667,0.07146 3.5,0.06095c3.09463,-0.0282 6.14873,-0.70943 9.22183,-1.07492c2.36074,-0.28077 4.80356,-0.3722 7.27817,-0.36736z" fill="#797575" stroke="#000000" stroke-width="0.5"/><path d="M248,153.17243c-2.09543,0.04659 -4.20443,0.35217 -6.27817,0.06915c-4.58574,-0.62586 -9.15135,-1.06648 -13.72183,-1.37531v-47.69962c0.83333,0 1.66667,0 2.5,0c5.18934,0 11.27776,-0.95519 16.39818,-0.12913c0.38011,0.06132 0.74312,0.19484 1.10182,0.34563z" fill="#797575" stroke="#000000" stroke-width="0.5"/><path d="M248,233.16666c-6.66667,0 -13.33333,0 -20,0v-61.00061c2.42318,0.00882 4.87176,-0.36051 7.27817,-0.07431c1.36475,0.16231 2.63487,0.84088 4,1c2.84856,0.33204 5.77164,0.44987 8.72183,0.4598z" fill="#797575" stroke="#000000" stroke-width="0.5"/><path d="M248,313.27557c-2.4794,-0.49316 -4.97322,-1.066 -7.5,-1.10892c-4.16471,-0.07074 -8.33195,-0.09095 -12.5,-0.08769v-58.91231c6.68006,0 13.42195,0 20,0z" fill="#797575" stroke="#000000" stroke-width="0.5"/><path d="M228,454v-121.83334c1.16667,0 2.33333,0 3.5,0c3.16165,0 7.33755,-0.73515 10.39818,-0.12913c1.03402,0.20474 1.95735,0.84513 3,1c1.00947,0.14994 2.04763,0.2371 3.10182,0.28259v120.67988z" fill="#797575" stroke="#000000" stroke-width="0.5"/><path d="M248.75,392.58333v-439.5h40.5v439.5z" fill="#30302a" stroke="none" stroke-width="0"/><path d="M185.75,404.58333v-439.5h40.5v439.5z" fill="#30302a" stroke="none" stroke-width="0"/><path d="M-6.5,377.16666v-22h478v22z" fill="#110808" stroke="#110808" stroke-width="2"/></g></g></svg>