<svg version="1.1" xmlns="http://www.w3.org/2000/svg" xmlns:xlink="http://www.w3.org/1999/xlink" width="132" height="229" viewBox="0,0,132,229"><g transform="translate(-28.5,-43.16665)"><g data-paper-data="{&quot;isPaintingLayer&quot;:true}" fill-rule="nonzero" stroke="#000000" stroke-width="2" stroke-linejoin="miter" stroke-miterlimit="10" stroke-dasharray="" stroke-dashoffset="0" style="mix-blend-mode: normal"><path d="M43.5,256.16666c0,0 7,-71.2838 7,-104.58332c0,-5.34149 -5.21548,-11.49962 -5.57084,-18.02338c-1.67001,-30.65886 -1.42916,-69.39329 -1.42916,-69.39329c0,0 35.95568,-20 52.5,-20c17.70963,0 50.5,20 50.5,20c0,0 -1.70161,37.67735 -3.76548,67.93267c-0.45609,6.68603 -4.73452,13.0096 -4.73452,18.484c0,33.43338 8.5,105.58333 8.5,105.58333c0,0 -35.01307,15 -52.5,15c-16.82051,0 -50.5,-15 -50.5,-15z" fill="#545350" stroke-linecap="butt"/><path d="M43,68.08333l-11,31c0,0 -3.79336,17.30207 -1.22805,25.414c3.37595,10.6753 18.72805,31.586 18.72805,31.586c0,0 -0.0509,-9.90124 -4.01846,-17.03158c-2.28591,-4.10814 -0.88713,-12.36236 -1.30622,-21.9323c-0.98967,-22.5994 -1.17532,-49.03611 -1.17532,-49.03611z" fill="#545350" stroke-linecap="round"/><path d="M145.38151,67.08333l11,31c0,0 3.79336,17.30207 1.22805,25.414c-3.37595,10.6753 -18.72805,31.586 -18.72805,31.586c0,0 0.0509,-9.90124 4.01847,-17.03158c2.28591,-4.10814 0.88713,-12.36236 1.30621,-21.9323c0.98967,-22.5994 1.17532,-49.03611 1.17532,-49.03611z" data-paper-data="{&quot;index&quot;:null}" fill="#545350" stroke-linecap="round"/><path d="M59.5,86.58333v-14c0,0 4.82051,-11 7.5,-11c3.09401,0 10,11 10,11v14c0,0 -5.54287,-0.5 -8.5,-0.5c-2.87382,0 -9,0.5 -9,0.5z" fill="#545350" stroke-linecap="butt"/><path d="M108.5,86.58333v-14.5c0,0 6.01713,-10.5 9,-10.5c3.31528,0 10,10.5 10,10.5v14.5c0,0 -6.75445,-1.5 -10,-1.5c-3.079,0 -9,1.5 -9,1.5z" fill="#545350" stroke-linecap="butt"/><path d="M58.5,147.58333l-4,-36c0,0 24.94298,-12 37.5,-12c13.3895,0 40.5,12 40.5,12l-3,35.5c0,0 -23.68399,13 -37,13c-12.64978,0 -34,-12.5 -34,-12.5z" fill="#545350" stroke-linecap="butt"/><path d="M59,148.58333l10,89" fill="none" stroke-linecap="round"/><path d="M129.5,147.58333l-12.5,87.5" fill="none" stroke-linecap="round"/><path d="M51.25,209.58333v-13.5h9.5v13.5z" fill="#545350" stroke-linecap="butt"/><path d="M34,268.08333l13,-27.5h97.5l10.5,27.5z" fill="#545350" stroke-linecap="butt"/><path d="M35.5,261.08333c0,0 -6,-27.69094 -6,-29c0,-4.79194 18,-45 18,-45l-1,17l-3,41.5z" fill="#545350" stroke-linecap="butt"/><path d="M145.5,244.08333l-3,-41.5l-1,-17c0,0 18,40.20806 18,45c0,1.30906 -6,29 -6,29z" data-paper-data="{&quot;index&quot;:null}" fill="#545350" stroke-linecap="butt"/></g></g></svg>